<svg version="1.1" xmlns="http://www.w3.org/2000/svg" xmlns:xlink="http://www.w3.org/1999/xlink" width="653.55468" height="246.26478" viewBox="0,0,653.55468,246.26478"><defs><linearGradient x1="-50.00005" y1="291.73213" x2="603.55463" y2="291.73213" gradientUnits="userSpaceOnUse" id="color-1"><stop offset="0" stop-color="#dbffe4"/><stop offset="1" stop-color="#baf0ff"/></linearGradient></defs><g transform="translate(50.00005,-168.59974)"><g data-paper-data="{&quot;isPaintingLayer&quot;:true}" fill="url(#color-1)" fill-rule="nonzero" stroke="none" stroke-width="0.5" stroke-linecap="butt" stroke-linejoin="miter" stroke-miterlimit="10" stroke-dasharray="" stroke-dashoffset="0" style="mix-blend-mode: normal"><path d="M-46.40625,328.45313c1.02273,-1.43231 2.39238,-2.54833 3.81708,-3.61416c1.10814,-1.02203 2.31696,-1.93653 3.60991,-2.72692c0.65483,-0.40031 1.33125,-0.76878 2.02709,-1.10327c-0.40036,-2.99419 -3.2971,-4.93773 -3.35184,-8.04443c-0.08214,-4.6613 0.97858,-9.19358 2.7322,-13.50026c0.97866,-2.40348 4.03356,-4.39446 4.8182,-6.73688c0.57558,-1.71831 0.16308,-3.65386 0.66196,-5.39598c1.52657,-5.3309 9.32876,-9.87495 14.33217,-11.48607c22.41245,-7.21688 75.02594,-2.39137 81.90806,-2.06646c6.66757,0.31478 13.33374,0.65867 20,1c0.69656,0.03567 1.39628,-0.52825 2.06578,-0.33272c2.50877,0.7327 4.81711,2.02975 7.23759,3.01566c0.91694,0.37349 1.76343,1.66057 2.67877,1.28318c10.87987,-4.4857 29.11983,-16.09632 42.18927,-13.11943c2.52903,0.57605 4.93092,1.70757 7.18002,2.9996c1.6502,0.94799 2.50278,3.41709 4.39183,3.64806c0.57049,0.06975 2.19272,-0.61505 2.51341,-0.64712c4.43412,-0.44341 10.96737,0.68374 15.0057,2.55224c2.65413,1.22804 3.53492,5.75867 6.45354,5.94342c6.73519,0.42633 13.5232,-1.06737 20.05796,-2.75305c0.45292,-0.11683 3.56514,-6.86916 4.80362,-8.07417c5.54315,-5.39333 13.20307,-8.30382 19.80864,-12.0265c2.95367,-1.66459 4.95248,-5.08451 7.9653,-6.64287c4.92002,-2.54484 10.31872,-2.9996 15.81998,-2.9996c1.62157,0 3.96286,0.7729 5.69826,0.10087c5.56302,-2.15427 27.30542,-10.85927 27.94723,-11.13422c0.54807,-0.23479 25.98266,-13.33495 32.12368,-14.69962c6.78257,-1.50724 11.62801,-2.36707 18.32178,1.28574c2.25182,1.22883 2.85101,4.54721 5.11843,5.74701c1.11443,0.5897 2.39095,-0.80752 3.61031,-1.12822c2.2408,-0.58935 4.54363,-0.85456 6.79779,-1.36587c4.22229,-0.95773 8.5728,-1.01281 12.77508,-2.07909c6.92274,-1.75657 13.21972,-4.55147 20.01421,-6.42172c7.49844,-2.06402 13.34798,-0.56035 20.57011,2.41347c2.08808,0.8598 3.26509,4.71909 5.09583,5.90044c0.44814,0.28918 0.99353,-0.38946 1.4795,-0.60921c21.13427,-9.55653 42.32736,-18.98491 63.38034,-28.71922c19.34343,-8.94386 40.36416,-21.85174 61.13205,-27.39143c6.11643,-1.63152 12.30039,-1.25673 18.21466,2.35941c2.05275,1.2551 2.93723,3.8131 4.47588,5.66286c1.53866,1.84975 3.89284,3.18523 4.75317,5.4322c2.46851,6.44709 1.77295,11.83618 -0.72425,17.39201c-0.62602,1.39279 -1.23919,2.79484 -1.96692,4.13729c-0.31397,0.57918 -1.65514,1.99344 -1.09633,1.64449c9.81667,-6.12995 22.82634,-13.11808 34.71186,-10.6654c2.24262,0.46278 5.00861,0.10283 6.65824,1.69098c1.66181,1.59988 3.01284,3.4964 4.60263,5.16787c0.40154,0.42217 4.06392,3.37571 4.55826,5.11805c1.09723,3.8673 2.11269,7.76339 2.91008,11.70346c0.45422,2.24437 -1.33446,4.38468 -2.14803,6.52515c-6.56069,17.2608 -28.90386,17.78769 -41.09587,29.05731c-2.18148,2.01644 5.94167,0.04492 8.91199,0c1.82704,-0.02763 3.513,0.03493 5.44375,0.35938c10.5993,1.78112 19.65305,9.48571 21.71027,20.42628c0.3549,1.88743 -0.93329,3.73799 -1.14285,5.64703c-0.20956,1.90904 0.64652,3.99498 -0.10938,5.76048c-3.13101,7.31291 -9.19865,12.22724 -16.47347,14.12012c-7.98049,2.0765 -15.99743,4.01031 -24,6c-0.04498,0.01118 -0.8131,0.16713 -0.80709,0.18713c0.66491,2.21313 2.27624,4.04834 3.04848,6.22635c0.99953,2.81903 1.30641,11.05365 0.79551,13.75097c-0.22143,1.16907 -1.36015,1.97245 -1.82509,3.0677c-4.28382,10.0913 -14.7217,12.90901 -24.73844,15.64414c-14.53723,3.96947 -29.11729,7.78476 -43.61533,11.89509c-5.88454,1.66832 -11.6924,3.59653 -17.52485,5.43875c-16.42759,5.18876 -33.08908,10.70646 -49.4098,16.22216c-15.44146,5.21855 -30.89313,10.51707 -46.69602,14.50963c-3.77631,0.95407 -10.34002,-0.56134 -12.90458,0.46755c-11.40549,4.57584 -17.97297,7.97569 -29.17476,13.11946c-5.90855,2.71316 -16.17732,4.25704 -20.44289,5.30743c-4.35291,1.07189 -9.3406,2.71921 -13.82925,1.57923c-7.90068,-2.00652 -11.44512,-5.53738 -16.02605,-12.44296c-2.32557,-3.50571 0.14525,-11.23153 -2.5957,-13.82785c-1.81137,-1.71579 -4.93496,-0.93963 -7.24341,-1.88624c-0.95583,-0.39195 -1.57982,-2.46592 -2.74271,-2.73861c-0.52869,-0.12397 -2.53659,0.98109 -3.14964,1.17028c-9.10765,2.81071 -20.7895,6.51093 -30.75651,9.17987c-3.81963,1.02281 -9.59724,3.09092 -13.94021,2.81663c-4.633,-0.29261 -12.34231,-1.61921 -15.60186,-5.39343c-1.65568,-1.9171 -3.15475,-3.97489 -4.52314,-6.10657c-0.47241,-0.73592 0.06859,-2.3652 -0.79545,-2.5c-9.24109,-1.44167 -21.69784,2.20899 -30.49048,-3.42817c-3.09351,-1.98332 -5.47281,-4.93376 -7.87515,-7.71443c-0.79111,-0.9157 -0.3627,-2.78101 -1.43978,-3.3326c-22.46806,-11.50628 -49.92222,7.52397 -74.89238,11.22524c-10.86051,1.60983 -27.43623,3.26667 -33.10574,4.02123c-15.79387,2.10202 -16.8134,2.7105 -36.42322,5.05114c-3.9775,0.47476 -8.55317,0.79158 -12.44655,-0.18177c-2.68303,-0.67076 -5.52527,-1.10868 -7.90625,-2.51562c-2.99793,-1.7715 -5.52873,-4.28388 -7.90625,-6.82812c-0.54149,-0.57947 0.12818,-2.03598 -0.62078,-2.29687c-2.28536,-0.79608 -4.85068,0.38411 -7.25871,0.1433c-7.48619,-0.74862 -13.06689,-4.17219 -18.12051,-9.84643c-1.07111,-1.20265 -1.15178,-5.43366 -1.87508,-6.51677c-1.5128,-1.0718 -2.89043,-2.32179 -4.10233,-3.7194c-3.49892,-4.03508 -5.61633,-9.30062 -5.61633,-15.0607c0,-2.88563 0.53141,-5.64714 1.5017,-8.192c0.40909,-1.83804 1.00777,-3.58637 2.09205,-5.10487z"/></g></g></svg>