<svg version="1.1" xmlns="http://www.w3.org/2000/svg" xmlns:xlink="http://www.w3.org/1999/xlink" width="442" height="156" viewBox="0,0,442,156"><g transform="translate(-10.88117,-101.06295)"><g data-paper-data="{&quot;isPaintingLayer&quot;:true}" fill-rule="nonzero" stroke="none" stroke-linecap="butt" stroke-linejoin="miter" stroke-miterlimit="10" stroke-dasharray="" stroke-dashoffset="0" style="mix-blend-mode: normal"><path d="M103.88117,244.06295c0,6.07513 -20.81876,11 -46.5,11c-25.68124,0 -46.5,-4.92487 -46.5,-11c0,-6.07513 20.81876,-11 46.5,-11c25.68124,0 46.5,4.92487 46.5,11z" fill="#efb36e" stroke-width="0"/><path d="M349.88117,246.06295c0,6.07513 -23.2812,11 -52,11c-28.7188,0 -52,-4.92487 -52,-11c0,-6.07513 23.2812,-11 52,-11c28.7188,0 52,4.92487 52,11z" fill="#efb36e" stroke-width="0"/><path d="M452.88117,114.06295c0,7.1797 -24.17662,13 -54,13c-3.10667,0 -6.15206,-0.06316 -9.11523,-0.18443c-25.4827,-1.04291 -44.88477,-6.38377 -44.88477,-12.81557c0,-7.1797 24.17663,-13 54,-13c29.82338,0 54,5.8203 54,13z" fill="#efb36e" stroke-width="0"/><path d="M35.63117,241.06295c0,-1.79493 1.45508,-3.25 3.25,-3.25c1.79492,0 3.25,1.45507 3.25,3.25c0,1.79493 -1.45508,3.25 -3.25,3.25c-1.79492,0 -3.25,-1.45507 -3.25,-3.25z" fill="#b1ff00" stroke-width="0.5"/><path d="M64.63117,248.06295c0,-1.79493 1.45507,-3.25 3.25,-3.25c1.79493,0 3.25,1.45507 3.25,3.25c0,1.79493 -1.45507,3.25 -3.25,3.25c-1.79493,0 -3.25,-1.45507 -3.25,-3.25z" fill="#b1ff00" stroke-width="0.5"/><path d="M316.63117,240.06295c0,-1.79493 1.45508,-3.25 3.25,-3.25c1.79492,0 3.25,1.45507 3.25,3.25c0,1.79493 -1.45508,3.25 -3.25,3.25c-1.79492,0 -3.25,-1.45507 -3.25,-3.25z" fill="#b1ff00" stroke-width="0.5"/><path d="M273.63117,245.06295c0,-1.79493 1.45508,-3.25 3.25,-3.25c1.79492,0 3.25,1.45507 3.25,3.25c0,1.79493 -1.45508,3.25 -3.25,3.25c-1.79492,0 -3.25,-1.45507 -3.25,-3.25z" fill="#b1ff00" stroke-width="0.5"/><path d="M361.63117,110.06295c0,-1.79493 1.45508,-3.25 3.25,-3.25c1.79492,0 3.25,1.45507 3.25,3.25c0,1.79493 -1.45508,3.25 -3.25,3.25c-1.79492,0 -3.25,-1.45507 -3.25,-3.25z" fill="#b1ff00" stroke-width="0.5"/><path d="M411.63117,110.06295c0,-1.79493 1.45508,-3.25 3.25,-3.25c1.79492,0 3.25,1.45507 3.25,3.25c0,1.79493 -1.45508,3.25 -3.25,3.25c-1.79492,0 -3.25,-1.45507 -3.25,-3.25z" fill="#b1ff00" stroke-width="0.5"/><path d="M80.63117,244.06295c0,-1.79493 1.45507,-3.25 3.25,-3.25c1.79493,0 3.25,1.45507 3.25,3.25c0,1.79493 -1.45507,3.25 -3.25,3.25c-1.79493,0 -3.25,-1.45507 -3.25,-3.25z" fill="#ff3000" stroke-width="0.5"/><path d="M22.63117,245.06295c0,-1.79493 1.45508,-3.25 3.25,-3.25c1.79492,0 3.25,1.45507 3.25,3.25c0,1.79493 -1.45508,3.25 -3.25,3.25c-1.79492,0 -3.25,-1.45507 -3.25,-3.25z" fill="#ff3000" stroke-width="0.5"/><path d="M334.63117,247.06295c0,-1.79493 1.45508,-3.25 3.25,-3.25c1.79492,0 3.25,1.45507 3.25,3.25c0,1.79493 -1.45508,3.25 -3.25,3.25c-1.79492,0 -3.25,-1.45507 -3.25,-3.25z" fill="#ff3000" stroke-width="0.5"/><path d="M432.63117,117.06295c0,-1.79493 1.45508,-3.25 3.25,-3.25c1.79492,0 3.25,1.45507 3.25,3.25c0,1.79493 -1.45508,3.25 -3.25,3.25c-1.79492,0 -3.25,-1.45507 -3.25,-3.25z" fill="#ff3000" stroke-width="0.5"/><path d="M376.63117,118.06295c0,-1.79493 1.45508,-3.25 3.25,-3.25c1.79492,0 3.25,1.45507 3.25,3.25c0,1.79493 -1.45508,3.25 -3.25,3.25c-1.79492,0 -3.25,-1.45507 -3.25,-3.25z" fill="#ff3000" stroke-width="0.5"/><path d="M54.63117,240.06295c0,-1.79493 1.45507,-3.25 3.25,-3.25c1.79493,0 3.25,1.45507 3.25,3.25c0,1.79493 -1.45507,3.25 -3.25,3.25c-1.79493,0 -3.25,-1.45507 -3.25,-3.25z" fill="#ffaa00" stroke-width="0.5"/><path d="M299.63117,250.06295c0,-1.79493 1.45508,-3.25 3.25,-3.25c1.79492,0 3.25,1.45507 3.25,3.25c0,1.79493 -1.45508,3.25 -3.25,3.25c-1.79492,0 -3.25,-1.45507 -3.25,-3.25z" fill="#ffaa00" stroke-width="0.5"/><path d="M406.96439,116.03521c1.02774,3.08322 -2.05548,4.11096 -2.05548,4.11096l-3,1c0,0 -3.08322,1.02774 -4.11096,-2.05548c-1.02774,-3.08322 2.05548,-4.11096 2.05548,-4.11096l3,-1c0,0 3.08322,-1.02774 4.11096,2.05548z" fill="#ffaa00" stroke-width="0.5"/><path d="M47.63117,247.06295c0,-1.79493 1.45508,-3.25 3.25,-3.25c1.79493,0 3.25,1.45507 3.25,3.25c0,1.79493 -1.45507,3.25 -3.25,3.25c-1.79492,0 -3.25,-1.45507 -3.25,-3.25z" fill="#00fff0" stroke-width="0.5"/><path d="M258.63117,245.06295c0,-1.79493 1.45508,-3.25 3.25,-3.25c1.79492,0 3.25,1.45507 3.25,3.25c0,1.79493 -1.45508,3.25 -3.25,3.25c-1.79492,0 -3.25,-1.45507 -3.25,-3.25z" fill="#00fff0" stroke-width="0.5"/><path d="M387.63117,107.06295c0,-1.79493 1.45508,-3.25 3.25,-3.25c1.79492,0 3.25,1.45507 3.25,3.25c0,1.79493 -1.45508,3.25 -3.25,3.25c-1.79492,0 -3.25,-1.45507 -3.25,-3.25z" fill="#00fff0" stroke-width="0.5"/><path d="M67.63117,239.06295c0,-1.79493 1.45507,-3.25 3.25,-3.25c1.79493,0 3.25,1.45507 3.25,3.25c0,1.79493 -1.45507,3.25 -3.25,3.25c-1.79493,0 -3.25,-1.45507 -3.25,-3.25z" fill="#007cff" stroke-width="0.5"/><path d="M316.63117,251.06295c0,-1.79493 1.45508,-3.25 3.25,-3.25c1.79492,0 3.25,1.45507 3.25,3.25c0,1.79493 -1.45508,3.25 -3.25,3.25c-1.79492,0 -3.25,-1.45507 -3.25,-3.25z" fill="#007cff" stroke-width="0.5"/><path d="M423.63117,111.06295c0,-1.79493 1.45508,-3.25 3.25,-3.25c1.79492,0 3.25,1.45507 3.25,3.25c0,1.79493 -1.45508,3.25 -3.25,3.25c-1.79492,0 -3.25,-1.45507 -3.25,-3.25z" fill="#007cff" stroke-width="0.5"/><path d="M34.63117,248.06295c0,-1.79493 1.45508,-3.25 3.25,-3.25c1.79492,0 3.25,1.45507 3.25,3.25c0,1.79493 -1.45508,3.25 -3.25,3.25c-1.79492,0 -3.25,-1.45507 -3.25,-3.25z" fill="#b900ff" stroke-width="0.5"/><path d="M285.63117,241.06295c0,-1.79493 1.45508,-3.25 3.25,-3.25c1.79492,0 3.25,1.45507 3.25,3.25c0,1.79493 -1.45508,3.25 -3.25,3.25c-1.79492,0 -3.25,-1.45507 -3.25,-3.25z" fill="#b900ff" stroke-width="0.5"/><path d="M355.63117,116.06295c0,-1.79493 1.45508,-3.25 3.25,-3.25c1.79492,0 3.25,1.45507 3.25,3.25c0,1.79493 -1.45508,3.25 -3.25,3.25c-1.79492,0 -3.25,-1.45507 -3.25,-3.25z" fill="#b900ff" stroke-width="0.5"/><path d="M48.63117,238.06295c0,-1.79493 1.45508,-3.25 3.25,-3.25c1.79493,0 3.25,1.45507 3.25,3.25c0,1.79493 -1.45507,3.25 -3.25,3.25c-1.79492,0 -3.25,-1.45507 -3.25,-3.25z" fill="#ff42cd" stroke-width="0.5"/><path d="M93.63117,245.06295c0,-1.79493 1.45507,-3.25 3.25,-3.25c1.79493,0 3.25,1.45507 3.25,3.25c0,1.79493 -1.45507,3.25 -3.25,3.25c-1.79493,0 -3.25,-1.45507 -3.25,-3.25z" fill="#ff42cd" stroke-width="0.5"/><path d="M283.63117,251.06295c0,-1.79493 1.45508,-3.25 3.25,-3.25c1.79492,0 3.25,1.45507 3.25,3.25c0,1.79493 -1.45508,3.25 -3.25,3.25c-1.79492,0 -3.25,-1.45507 -3.25,-3.25z" fill="#ff42cd" stroke-width="0.5"/><path d="M304.63117,242.06295c0,-1.79493 1.45508,-3.25 3.25,-3.25c1.79492,0 3.25,1.45507 3.25,3.25c0,1.79493 -1.45508,3.25 -3.25,3.25c-1.79492,0 -3.25,-1.45507 -3.25,-3.25z" fill="#ff42cd" stroke-width="0.5"/><path d="M413.63117,122.06295c0,-1.79493 1.45508,-3.25 3.25,-3.25c1.79492,0 3.25,1.45507 3.25,3.25c0,1.79493 -1.45508,3.25 -3.25,3.25c-1.79492,0 -3.25,-1.45507 -3.25,-3.25z" fill="#ff42cd" stroke-width="0.5"/></g></g></svg>