<svg version="1.1" xmlns="http://www.w3.org/2000/svg" xmlns:xlink="http://www.w3.org/1999/xlink" width="537" height="245.625" viewBox="0,0,537,245.625"><defs><linearGradient x1="201" y1="297.25" x2="217" y2="297.25" gradientUnits="userSpaceOnUse" id="color-1"><stop offset="0" stop-color="#ffbac5"/><stop offset="1" stop-color="#eeffba"/></linearGradient><linearGradient x1="316" y1="248.75" x2="344" y2="248.75" gradientUnits="userSpaceOnUse" id="color-2"><stop offset="0" stop-color="#ffbac5"/><stop offset="1" stop-color="#eeffba"/></linearGradient><linearGradient x1="107.71667" y1="121.25" x2="107.71667" y2="194.25" gradientUnits="userSpaceOnUse" id="color-3"><stop offset="0" stop-color="#13ffff"/><stop offset="1" stop-color="#9966ff"/></linearGradient><linearGradient x1="107.71667" y1="121.25" x2="107.71667" y2="194.25" gradientUnits="userSpaceOnUse" id="color-4"><stop offset="0" stop-color="#12ff98"/><stop offset="1" stop-color="#13ffff"/></linearGradient><linearGradient x1="202.5" y1="217.25" x2="202.5" y2="291.25" gradientUnits="userSpaceOnUse" id="color-5"><stop offset="0" stop-color="#a6ff4e"/><stop offset="1" stop-color="#d9ff12"/></linearGradient><linearGradient x1="202.5" y1="217.25" x2="202.5" y2="291.25" gradientUnits="userSpaceOnUse" id="color-6"><stop offset="0" stop-color="#d9ff12"/><stop offset="1" stop-color="#ffcf4f"/></linearGradient><linearGradient x1="317" y1="204.25" x2="374" y2="204.25" gradientUnits="userSpaceOnUse" id="color-7"><stop offset="0" stop-color="#ffbac5"/><stop offset="1" stop-color="#eeffba"/></linearGradient><linearGradient x1="411.5" y1="126.25" x2="411.5" y2="180.25" gradientUnits="userSpaceOnUse" id="color-8"><stop offset="0" stop-color="#ffcf4f"/><stop offset="1" stop-color="#ff5697"/></linearGradient><linearGradient x1="106.83333" y1="130.91667" x2="106.83333" y2="184.91667" gradientUnits="userSpaceOnUse" id="color-9"><stop offset="0" stop-color="#13ffff"/><stop offset="1" stop-color="#9966ff"/></linearGradient><linearGradient x1="106.83333" y1="130.91667" x2="106.83333" y2="184.91667" gradientUnits="userSpaceOnUse" id="color-10"><stop offset="0" stop-color="#12ff98"/><stop offset="1" stop-color="#13ffff"/></linearGradient><linearGradient x1="106.66667" y1="143.25" x2="106.66667" y2="173.91667" gradientUnits="userSpaceOnUse" id="color-11"><stop offset="0" stop-color="#12ff98"/><stop offset="1" stop-color="#13ffff"/></linearGradient><linearGradient x1="106.66667" y1="149.25" x2="106.66667" y2="166.25" gradientUnits="userSpaceOnUse" id="color-12"><stop offset="0" stop-color="#12ff98"/><stop offset="1" stop-color="#13ffff"/></linearGradient><linearGradient x1="106.66667" y1="155.58334" x2="106.66667" y2="159.58334" gradientUnits="userSpaceOnUse" id="color-13"><stop offset="0" stop-color="#12ff98"/><stop offset="1" stop-color="#13ffff"/></linearGradient><linearGradient x1="197.66667" y1="230.5" x2="197.66667" y2="266" gradientUnits="userSpaceOnUse" id="color-14"><stop offset="0" stop-color="#d9ff12"/><stop offset="1" stop-color="#ffcf4f"/></linearGradient><linearGradient x1="203.16667" y1="262" x2="203.16667" y2="287.5" gradientUnits="userSpaceOnUse" id="color-15"><stop offset="0" stop-color="#d9ff12"/><stop offset="1" stop-color="#ffcf4f"/></linearGradient><linearGradient x1="317.5" y1="193.5" x2="365.5" y2="193.5" gradientUnits="userSpaceOnUse" id="color-16"><stop offset="0" stop-color="#ffbac5"/><stop offset="1" stop-color="#eeffba"/></linearGradient><linearGradient x1="320.5" y1="207.5" x2="370.5" y2="207.5" gradientUnits="userSpaceOnUse" id="color-17"><stop offset="0" stop-color="#ffbac5"/><stop offset="1" stop-color="#eeffba"/></linearGradient><linearGradient x1="328.58333" y1="217.02083" x2="370.5" y2="217.02083" gradientUnits="userSpaceOnUse" id="color-18"><stop offset="0" stop-color="#ffbac5"/><stop offset="1" stop-color="#eeffba"/></linearGradient></defs><g transform="translate(15,-119.25)"><g data-paper-data="{&quot;isPaintingLayer&quot;:true}" fill-rule="nonzero" stroke-linejoin="miter" stroke-miterlimit="10" stroke-dasharray="" stroke-dashoffset="0" style="mix-blend-mode: normal"><path d="M100,171.25l-37,52l-36.5,50.25" fill="none" stroke="#bfff4f" stroke-width="4" stroke-linecap="round"/><path d="M217,320.25l-16,-46" fill="none" stroke="url(#color-1)" stroke-width="4" stroke-linecap="round"/><path d="M344,216.25l-28,65" fill="none" stroke="url(#color-2)" stroke-width="4" stroke-linecap="round"/><path d="M413,166.25l33,44" fill="none" stroke="#bfff4f" stroke-width="4" stroke-linecap="round"/><path d="M145.43334,157.75c0,20.15839 -16.88633,36.5 -37.71667,36.5c-20.83034,0 -37.71667,-16.34161 -37.71667,-36.5c0,-20.15839 16.88633,-36.5 37.71667,-36.5c20.83034,0 37.71667,16.34161 37.71667,36.5z" fill="url(#color-3)" stroke="url(#color-4)" stroke-width="4" stroke-linecap="butt"/><path d="M241,254.25c0,20.43453 -17.23703,37 -38.5,37c-21.26297,0 -38.5,-16.56547 -38.5,-37c0,-20.43454 17.23703,-37 38.5,-37c21.26297,0 38.5,16.56546 38.5,37z" fill="url(#color-5)" stroke="url(#color-6)" stroke-width="4" stroke-linecap="butt"/><path d="M374,204.25c0,16.01626 -12.75988,29 -28.5,29c-15.74012,0 -28.5,-12.98374 -28.5,-29c0,-16.01626 12.75988,-29 28.5,-29c15.74012,0 28.5,12.98374 28.5,29z" fill="#f9baff" stroke="url(#color-7)" stroke-width="4" stroke-linecap="butt"/><path d="M439,153.25c0,14.91169 -12.31217,27 -27.5,27c-15.18783,0 -27.5,-12.08831 -27.5,-27c0,-14.91169 12.31217,-27 27.5,-27c15.18783,0 27.5,12.08831 27.5,27z" fill="url(#color-8)" stroke="#bfff4f" stroke-width="4" stroke-linecap="butt"/><path d="" fill="#f2ffba" stroke="none" stroke-width="0.5" stroke-linecap="butt"/><path d="M134.66667,157.91667c0,14.91169 -12.4614,27 -27.83333,27c-15.37193,0 -27.83334,-12.08831 -27.83334,-27c0,-14.91169 12.46141,-27 27.83334,-27c15.37193,0 27.83333,12.08831 27.83333,27z" fill="url(#color-9)" stroke="url(#color-10)" stroke-width="4" stroke-linecap="butt"/><path d="M124.33334,158.58334c0,8.46837 -7.90964,15.33333 -17.66667,15.33333c-9.75703,0 -17.66666,-6.86496 -17.66666,-15.33333c0,-8.46837 7.90963,-15.33334 17.66666,-15.33334c9.75703,0 17.66667,6.86497 17.66667,15.33334z" fill="none" stroke="url(#color-11)" stroke-width="4" stroke-linecap="butt"/><path d="M116.66667,157.75c0,4.69442 -4.47715,8.5 -10,8.5c-5.52285,0 -10,-3.80558 -10,-8.5c0,-4.69442 4.47715,-8.5 10,-8.5c5.52285,0 10,3.80558 10,8.5z" fill="none" stroke="url(#color-12)" stroke-width="4" stroke-linecap="butt"/><path d="M109,157.58334c0,0.55229 -1.04467,1 -2.33334,1c-1.28866,0 -2.33333,-0.44771 -2.33333,-1c0,-0.55229 1.04466,-1 2.33333,-1c1.28866,0 2.33334,0.44771 2.33334,1z" fill="none" stroke="url(#color-13)" stroke-width="4" stroke-linecap="butt"/><path d="M165.66667,242.5l64,-12l-62,35.5" fill="none" stroke="url(#color-14)" stroke-width="4" stroke-linecap="round"/><path d="M169.16667,272l68,-10l-44,25.5" fill="none" stroke="url(#color-15)" stroke-width="4" stroke-linecap="round"/><path d="M317.5,201.5l48,-16" fill="none" stroke="url(#color-16)" stroke-width="4" stroke-linecap="round"/><path d="M320.5,217.5l50,-20" fill="none" stroke="url(#color-17)" stroke-width="4" stroke-linecap="round"/><path d="M328.58333,227.54167l5.91667,-3.04167l36,-18" fill="none" stroke="url(#color-18)" stroke-width="4" stroke-linecap="round"/><path d="M415.08333,179.04167l21,-38" fill="none" stroke="#bfff4f" stroke-width="4" stroke-linecap="round"/><path d="M385.58333,153.04167l48.5,-1.5h5" fill="none" stroke="#bfff4f" stroke-width="4" stroke-linecap="round"/><path d="M419.08333,126.04167l-24.5,43.5" fill="none" stroke="#bfff4f" stroke-width="4" stroke-linecap="round"/><path d="M406.58333,177.04167l-10.5,-46.5" fill="none" stroke="#bfff4f" stroke-width="4" stroke-linecap="round"/><path d="M-14,363.875v-12h535v12z" fill="#d5c0ff" stroke="#d5c0ff" stroke-width="2" stroke-linecap="butt"/></g></g></svg>