<svg version="1.1" xmlns="http://www.w3.org/2000/svg" xmlns:xlink="http://www.w3.org/1999/xlink" width="628" height="341.125" viewBox="0,0,628,341.125"><defs><linearGradient x1="-41" y1="344.25" x2="553" y2="344.25" gradientUnits="userSpaceOnUse" id="color-1"><stop offset="0" stop-color="#f8e8ff"/><stop offset="1" stop-color="#dbf7ff"/></linearGradient><linearGradient x1="-41" y1="344.25" x2="553" y2="344.25" gradientUnits="userSpaceOnUse" id="color-2"><stop offset="0" stop-color="#f8e8ff"/><stop offset="1" stop-color="#dbf7ff"/></linearGradient><linearGradient x1="17" y1="256.625" x2="127" y2="256.625" gradientUnits="userSpaceOnUse" id="color-3"><stop offset="0" stop-color="#b9fdff"/><stop offset="1" stop-color="#efc2ff"/></linearGradient><linearGradient x1="184" y1="107.625" x2="291" y2="107.625" gradientUnits="userSpaceOnUse" id="color-4"><stop offset="0" stop-color="#b9fdff"/><stop offset="1" stop-color="#efc2ff"/></linearGradient><linearGradient x1="426" y1="168.125" x2="506" y2="168.125" gradientUnits="userSpaceOnUse" id="color-5"><stop offset="0" stop-color="#b9fdff"/><stop offset="1" stop-color="#efc2ff"/></linearGradient></defs><g transform="translate(58,-63.625)"><g data-paper-data="{&quot;isPaintingLayer&quot;:true}" fill-rule="nonzero" stroke-linecap="butt" stroke-linejoin="miter" stroke-miterlimit="10" stroke-dasharray="" stroke-dashoffset="0" style="mix-blend-mode: normal"><path d="M-41,387.75v-87h594v87z" fill="url(#color-1)" stroke="url(#color-2)" stroke-width="34"/><path d="M102,237.625c13.80712,0 25,11.19288 25,25c0,13.80712 -11.19288,25 -25,25c-1.82116,0 -3.59686,-0.19473 -5.30737,-0.5645c-4.31336,7.50807 -12.4125,12.5645 -21.69263,12.5645c-9.64284,0 -18.01056,-5.45941 -22.18088,-13.45593c-3.27392,1.57405 -6.94353,2.45593 -10.81912,2.45593c-13.80712,0 -25,-11.19288 -25,-25c0,-6.0399 2.14188,-11.57954 5.70752,-15.90079c-1.1024,-2.81984 -1.70752,-5.88886 -1.70752,-9.09921c0,-13.80712 11.19288,-25 25,-25c7.97361,0 15.07536,3.7329 19.65299,9.54644c12.82121,-3.56915 27.296,2.65079 32.42297,14.75975c1.2784,-0.20154 2.589,-0.30618 3.92404,-0.30618z" fill="url(#color-3)" stroke="none" stroke-width="0.5"/><path d="M291,126.625c0,13.80712 -11.19288,25 -25,25c-8.93577,0 -16.77656,-4.68812 -21.19694,-11.73893c-4.57165,5.92351 -11.74178,9.73893 -19.80305,9.73893c-11.09481,0 -20.5016,-7.22729 -23.76924,-17.23076c-10.00347,-3.26764 -17.23076,-12.67443 -17.23076,-23.76924c0,-11.8747 8.27907,-21.81572 19.3799,-24.36577c2.06509,-11.7257 12.30225,-20.63423 24.6201,-20.63423c12.29968,0 22.52479,8.88226 24.61091,20.58232c1.73566,-0.38133 3.53891,-0.58232 5.38909,-0.58232c13.69613,0 24.81988,11.01366 24.99784,24.66754c4.92197,4.56578 8.00216,11.08941 8.00216,18.33246z" fill="url(#color-4)" stroke="none" stroke-width="0.5"/><path d="M506,186.625c0,13.80712 -11.19288,25 -25,25c-9.5712,0 -17.88616,-5.37859 -22.08724,-13.27812c-2.48676,0.8291 -5.14732,1.27812 -7.91276,1.27812c-13.80712,0 -25,-11.19288 -25,-25c0,-5.28358 1.63905,-10.18433 4.43642,-14.22154c-1.56182,-3.26362 -2.43642,-6.9189 -2.43642,-10.77846c0,-13.80712 11.19288,-25 25,-25c8.63339,0 16.24466,4.37621 20.73654,11.03137c0.41852,-0.02083 0.83976,-0.03137 1.26346,-0.03137c13.80712,0 25,11.19288 25,25c0,2.89131 -0.49082,5.66799 -1.39369,8.25125c4.56603,4.52962 7.39369,10.80897 7.39369,17.74875z" fill="url(#color-5)" stroke="none" stroke-width="0.5"/></g></g></svg>