<svg version="1.1" xmlns="http://www.w3.org/2000/svg" xmlns:xlink="http://www.w3.org/1999/xlink" width="566.37724" height="442.31295" viewBox="0,0,566.37724,442.31295"><g transform="translate(37.99607,35.25)"><g data-paper-data="{&quot;isPaintingLayer&quot;:true}" fill-rule="nonzero" stroke-linejoin="miter" stroke-miterlimit="10" stroke-dasharray="" stroke-dashoffset="0" style="mix-blend-mode: normal"><path d="M276.88117,376.06295l-0.61442,-49.56295" fill="none" stroke="#ffea00" stroke-width="10" stroke-linecap="round"/><path d="M275.51045,265.49128l-1.62928,-131.42833l82,-84l84,89l-1.1132,126.3476" fill="none" stroke="#ffea00" stroke-width="10" stroke-linecap="round"/><path d="M438.1959,330.341l-0.31473,35.72195" fill="none" stroke="#ffea00" stroke-width="10" stroke-linecap="round"/><path d="M438.88117,140.06295l-164,-7" fill="none" stroke="#ffea00" stroke-width="10" stroke-linecap="round"/><path d="M357.38659,326.15399c0.28767,31.3553 0.49458,53.90897 0.49458,53.90897" fill="none" stroke="#ffea00" stroke-width="10" stroke-linecap="round"/><path d="M354.88117,53.06295c0,0 0.59604,64.96834 0.98157,106.991c0.2241,24.42724 0.59819,65.20241 0.96383,105.05795" fill="none" stroke="#ffea00" stroke-width="10" stroke-linecap="round"/><path d="M312.88117,401.06295l-0.98109,-74.56295" fill="none" stroke="#ffea00" stroke-width="10" stroke-linecap="round"/><path d="M311.09322,265.17848l-2.21204,-168.11553" fill="none" stroke="#ffea00" stroke-width="10" stroke-linecap="round"/><path d="M394.88117,402.06295l1.46041,-73.50736" fill="none" stroke="#ffea00" stroke-width="10" stroke-linecap="round"/><path d="M400.88118,100.06295l-3.28163,165.17515" fill="none" stroke="#ffea00" stroke-width="10" stroke-linecap="round"/><path d="M287.88117,88.06295v-70h138v70z" fill="#88ffff" stroke="#ffea00" stroke-width="10" stroke-linecap="butt"/><text transform="translate(314.88117,39.06295) scale(0.5,0.5)" font-size="40" xml:space="preserve" fill="#ffea00" fill-rule="nonzero" stroke="none" stroke-width="1" stroke-linecap="butt" stroke-linejoin="miter" stroke-miterlimit="10" stroke-dasharray="" stroke-dashoffset="0" font-family="Handwriting" font-weight="normal" text-anchor="start" style="mix-blend-mode: normal"><tspan x="0" dy="0">The Living</tspan><tspan x="0" dy="46.15px">  Library</tspan></text><text transform="translate(306.88117,77.75514) scale(0.27439,0.38665)" font-size="40" xml:space="preserve" fill="#ffea00" fill-rule="nonzero" stroke="none" stroke-width="1" stroke-linecap="butt" stroke-linejoin="miter" stroke-miterlimit="10" stroke-dasharray="" stroke-dashoffset="0" font-family="Handwriting" font-weight="normal" text-anchor="start" style="mix-blend-mode: normal"><tspan x="0" dy="0">Every book has its life</tspan></text><path d="M-8.11883,369.06295v-37h519v37z" fill="#af6f00" stroke="#88ffff" stroke-width="35" stroke-linecap="butt"/><path d="M-0.11883,348.06295l501,4" fill="none" stroke="#88ffff" stroke-width="35" stroke-linecap="round"/><path d="M476.38117,267.78148l-247,-1l-133,2l-1.87724,-292.53148" fill="none" stroke="#ffea00" stroke-width="7" stroke-linecap="round"/><path d="M9.50393,-31.75l1,293l-45,1" fill="none" stroke="#ffea00" stroke-width="7" stroke-linecap="round"/></g></g></svg>