<svg version="1.1" xmlns="http://www.w3.org/2000/svg" xmlns:xlink="http://www.w3.org/1999/xlink" width="459.51148" height="129.23673" viewBox="0,0,459.51148,129.23673"><g transform="translate(-12.38117,-153.90097)"><g data-paper-data="{&quot;isPaintingLayer&quot;:true}" fill-rule="nonzero" stroke-linecap="butt" stroke-linejoin="miter" stroke-miterlimit="10" stroke-dasharray="" stroke-dashoffset="0" style="mix-blend-mode: normal"><path d="M77.88117,229.56295c0,11.87412 -10.74517,21.5 -24,21.5c-13.25483,0 -24,-9.62588 -24,-21.5c0,-11.87412 10.74517,-21.5 24,-21.5c13.25483,0 24,9.62588 24,21.5z" fill="#af6f00" stroke="#af6f00" stroke-width="35"/><path d="M185.12295,166.57474c-0.6812,-4.34267 -1.55064,-8.5317 -1.95151,-12.67377c2.22393,0.11377 4.46063,0.16053 6.70973,0.16199c11.99998,0.0078 24.00002,0 36,0c14.39583,0 28.79167,0 43.1875,0c0.1663,0.71367 0.30741,1.41255 0.42188,2.09375c1.32114,7.86195 0.92894,17.32384 -2.73437,24.40625c-2.88875,5.58492 -9.15339,9.99726 -14.38032,13.03057c-12.8671,7.46707 -35.95377,10.75854 -48.4701,0.43256c-1.45488,-1.20028 -2.51755,-2.82639 -3.95989,-4.04172c-6.48263,-5.46233 -12.8413,-11.68759 -13.72541,-20.5287z" fill="#af6f00" stroke="none" stroke-width="0.5"/><path d="" fill="#af6f00" stroke="none" stroke-width="0.5"/><path d="M389.79149,209.23768c0.44407,-0.62218 0.59914,-2.16841 0.99594,-2.62786c7.01199,-8.11915 10.69787,-8.40912 21.44098,-10.54687c17.75734,-3.5335 36.40627,-1.19361 48.61591,13.02458c6.91309,8.05032 9.81134,15.71043 11.04833,23.97543c-29.68433,0 -59.36866,0 -89.05299,0c0.36075,-8.44869 1.8679,-16.70224 6.95183,-23.82528z" fill="#af6f00" stroke="none" stroke-width="0.5"/><path d="M409.79392,283.06295c0.06282,0 0.12562,0 0.18844,0c-0.01289,0.02479 -0.02569,0.04971 -0.03839,0.07475c-0.05007,-0.02482 -0.10009,-0.04974 -0.15004,-0.07475z" fill="#af6f00" stroke="none" stroke-width="0.5"/><path d="" fill="#af6f00" stroke="none" stroke-width="0.5"/><path d="M224.88117,188.06295c-10.15131,0 -18.88949,-6.05034 -22.80515,-14.74165c-3.25728,-4.22167 -5.19485,-9.51373 -5.19485,-15.25835c0,-1.36044 0.10867,-2.69551 0.31779,-3.99698c9.56073,0.00193 19.12149,-0.00302 28.68221,-0.00302c8.56057,0 17.12115,0 25.68172,0c0.20944,1.30243 0.31828,2.63851 0.31828,4c0,4.23794 -1.05449,8.22959 -2.91542,11.72688c-2.93759,10.53988 -12.60799,18.27312 -24.08458,18.27312z" fill="#ffd58c" stroke="none" stroke-width="0.5"/><path d="" fill="#ffd58c" stroke="none" stroke-width="0.5"/><path d="M248.3343,188.1567c-2.02487,1.72805 -8.54375,3.51929 -10.73014,3.94507c-2.39805,1.01328 -4.98715,1.66309 -7.69825,1.88038c-1.13304,0.19743 -2.27215,0.30202 -3.42227,0.23657c-10.40093,-0.59188 -23.10959,-9.83935 -29.69621,-17.70264c-0.49099,-0.58616 -0.32246,-1.50136 -0.59849,-2.21443c-2.97314,-7.68032 -4.63077,-14.02457 -3.98186,-20.23737c11.22468,0.0055 22.44942,-0.00132 33.6741,-0.00132c11.02409,0 22.04818,0 33.07227,0c0.38082,13.97478 1.00581,24.17288 -10.61914,34.09375z" fill="#ffd58c" stroke="none" stroke-width="0.5"/><path d="" fill="#ffd58c" stroke="none" stroke-width="0.5"/><path d="M395.91804,212.08753c8.26534,-10.0186 20.2313,-13.75768 32.86939,-11.63395c15.66758,2.6328 37.09591,15.77209 39.68889,32.60938c-25.88696,0 -51.77394,0 -77.6609,0c-0.50578,-7.55921 0.47598,-15.36737 5.10262,-20.97542z" fill="#ffd58c" stroke="none" stroke-width="0.5"/><path d="" fill="#ffd58c" stroke="none" stroke-width="0.5"/><path d="" fill="#ffb027" stroke="none" stroke-width="0.5"/><path d="M211.88117,165.06295c0,-0.55229 0.44771,-1 1,-1c0.55229,0 1,0.44771 1,1c0,0.55229 -0.44771,1 -1,1c-0.55229,0 -1,-0.44771 -1,-1z" fill="#ffb027" stroke="none" stroke-width="0.5"/><path d="M208.88117,155.06295c0,-0.52794 0.40912,-0.96033 0.92761,-0.99742c0.04813,-0.00001 0.09627,-0.00002 0.1444,-0.00003c0.51868,0.0369 0.928,0.46937 0.928,0.99745c0,0.55229 -0.44771,1 -1,1c-0.55229,0 -1,-0.44771 -1,-1z" fill="#ffb027" stroke="none" stroke-width="0.5"/><path d="" fill="#ffb027" stroke="none" stroke-width="0.5"/><path d="M204.88117,168.06295c0,-0.55229 0.44771,-1 1,-1c0.55229,0 1,0.44771 1,1c0,0.55229 -0.44771,1 -1,1c-0.55229,0 -1,-0.44771 -1,-1z" fill="#ffb027" stroke="none" stroke-width="0.5"/><path d="M219.88117,174.06295c0,-0.55229 0.44771,-1 1,-1c0.55229,0 1,0.44771 1,1c0,0.55229 -0.44771,1 -1,1c-0.55229,0 -1,-0.44771 -1,-1z" fill="#ffb027" stroke="none" stroke-width="0.5"/><path d="M225.88117,171.06295c0,-0.55229 0.44771,-1 1,-1c0.55229,0 1,0.44771 1,1c0,0.55229 -0.44771,1 -1,1c-0.55229,0 -1,-0.44771 -1,-1z" fill="#ffb027" stroke="none" stroke-width="0.5"/><path d="M231.88117,184.06295c0,-0.55229 0.44771,-1 1,-1c0.55229,0 1,0.44771 1,1c0,0.55229 -0.44771,1 -1,1c-0.55229,0 -1,-0.44771 -1,-1z" fill="#ffb027" stroke="none" stroke-width="0.5"/><path d="M239.88117,173.06295c0,-0.55229 0.44771,-1 1,-1c0.55229,0 1,0.44771 1,1c0,0.55229 -0.44771,1 -1,1c-0.55229,0 -1,-0.44771 -1,-1z" fill="#ffb027" stroke="none" stroke-width="0.5"/><path d="M236.88117,161.06295c0,-0.55229 0.44771,-1 1,-1c0.55229,0 1,0.44771 1,1c0,0.55229 -0.44771,1 -1,1c-0.55229,0 -1,-0.44771 -1,-1z" fill="#ffb027" stroke="none" stroke-width="0.5"/><path d="" fill="#ffb027" stroke="none" stroke-width="0.5"/><path d="" fill="#ffb027" stroke="none" stroke-width="0.5"/><path d="" fill="#ffb027" stroke="none" stroke-width="0.5"/><path d="" fill="#ffb027" stroke="none" stroke-width="0.5"/><path d="M210.88117,181.06295c0,-0.55229 0.44771,-1 1,-1c0.55229,0 1,0.44771 1,1c0,0.55229 -0.44771,1 -1,1c-0.55229,0 -1,-0.44771 -1,-1z" fill="#ffb027" stroke="none" stroke-width="0.5"/><path d="" fill="#ffb027" stroke="none" stroke-width="0.5"/><path d="M411.88117,230.06295c0,-0.55229 0.44772,-1 1,-1c0.55228,0 1,0.44771 1,1c0,0.55229 -0.44772,1 -1,1c-0.55228,0 -1,-0.44771 -1,-1z" fill="#ffb027" stroke="none" stroke-width="0.5"/><path d="M399.88117,221.06295c0,-0.55229 0.44772,-1 1,-1c0.55228,0 1,0.44771 1,1c0,0.55229 -0.44772,1 -1,1c-0.55228,0 -1,-0.44771 -1,-1z" fill="#ffb027" stroke="none" stroke-width="0.5"/><path d="M407.88117,218.06295c0,-0.55229 0.44772,-1 1,-1c0.55228,0 1,0.44771 1,1c0,0.55229 -0.44772,1 -1,1c-0.55228,0 -1,-0.44771 -1,-1z" fill="#ffb027" stroke="none" stroke-width="0.5"/><path d="M428.88117,228.06295c0,-0.55229 0.44772,-1 1,-1c0.55228,0 1,0.44771 1,1c0,0.55229 -0.44772,1 -1,1c-0.55228,0 -1,-0.44771 -1,-1z" fill="#ffb027" stroke="none" stroke-width="0.5"/><path d="" fill="#ffb027" stroke="none" stroke-width="0.5"/><path d="" fill="#ffb027" stroke="none" stroke-width="0.5"/><path d="" fill="#ffb027" stroke="none" stroke-width="0.5"/><path d="" fill="#ffb027" stroke="none" stroke-width="0.5"/><path d="" fill="#ffb027" stroke="none" stroke-width="0.5"/><path d="" fill="#ffb027" stroke="none" stroke-width="0.5"/><path d="" fill="#ffb027" stroke="none" stroke-width="0.5"/><path d="M454.88117,223.06295c0,-0.55229 0.44772,-1 1,-1c0.55228,0 1,0.44771 1,1c0,0.55229 -0.44772,1 -1,1c-0.55228,0 -1,-0.44771 -1,-1z" fill="#ffb027" stroke="none" stroke-width="0.5"/><path d="M442.88117,227.06295c0,-0.55229 0.44772,-1 1,-1c0.55228,0 1,0.44771 1,1c0,0.55229 -0.44772,1 -1,1c-0.55228,0 -1,-0.44771 -1,-1z" fill="#ffb027" stroke="none" stroke-width="0.5"/><path d="" fill="#ffb027" stroke="none" stroke-width="0.5"/><path d="M427.88117,213.06295c0,-0.55229 0.44772,-1 1,-1c0.55228,0 1,0.44771 1,1c0,0.55229 -0.44772,1 -1,1c-0.55228,0 -1,-0.44771 -1,-1z" fill="#ffb027" stroke="none" stroke-width="0.5"/></g></g></svg>