<svg version="1.1" xmlns="http://www.w3.org/2000/svg" xmlns:xlink="http://www.w3.org/1999/xlink" width="494" height="347.4982" viewBox="0,0,494,347.4982"><defs><linearGradient x1="188.88117" y1="174.875" x2="188.88117" y2="236.875" gradientUnits="userSpaceOnUse" id="color-1"><stop offset="0" stop-color="#fff0a9"/><stop offset="1" stop-color="#ffa9c9"/></linearGradient><linearGradient x1="333.88117" y1="67.875" x2="333.88117" y2="117.875" gradientUnits="userSpaceOnUse" id="color-2"><stop offset="0" stop-color="#a8ffe3"/><stop offset="1" stop-color="#b4a8ff"/></linearGradient><linearGradient x1="453.38117" y1="96.875" x2="453.38117" y2="151.875" gradientUnits="userSpaceOnUse" id="color-3"><stop offset="0" stop-color="#a8ffe3"/><stop offset="1" stop-color="#ffa9c9"/></linearGradient><linearGradient x1="13.88117" y1="211.875" x2="13.88117" y2="258.875" gradientUnits="userSpaceOnUse" id="color-4"><stop offset="0" stop-color="#ffc9dd"/><stop offset="1" stop-color="#ffd1fa"/></linearGradient></defs><g transform="translate(11.11883,88.6232)"><g data-paper-data="{&quot;isPaintingLayer&quot;:true}" fill-rule="nonzero" stroke="none" stroke-linecap="butt" stroke-linejoin="miter" stroke-miterlimit="10" stroke-dasharray="" stroke-dashoffset="0" style="mix-blend-mode: normal"><path d="M222.88117,205.875c0,17.12082 -15.22232,31 -34,31c-18.77768,0 -34,-13.87918 -34,-31c0,-17.12082 15.22232,-31 34,-31c18.77768,0 34,13.87918 34,31z" fill="url(#color-1)" stroke-width="0"/><path d="M360.88117,92.875c0,13.80712 -12.08831,25 -27,25c-14.91169,0 -27,-11.19288 -27,-25c0,-13.80712 12.08831,-25 27,-25c14.91169,0 27,11.19288 27,25z" fill="url(#color-2)" stroke-width="0"/><path d="M482.88117,124.375c0,15.18783 -13.2076,27.5 -29.5,27.5c-16.2924,0 -29.5,-12.31217 -29.5,-27.5c0,-15.18783 13.2076,-27.5 29.5,-27.5c16.2924,0 29.5,12.31217 29.5,27.5z" fill="url(#color-3)" stroke-width="0"/><path d="M38.88117,235.375c0,12.97869 -11.19288,23.5 -25,23.5c-13.80712,0 -25,-10.52131 -25,-23.5c0,-12.97869 11.19288,-23.5 25,-23.5c13.80712,0 25,10.52131 25,23.5z" fill="url(#color-4)" stroke-width="0"/><path d="M16.38117,216.875c0,-1.38071 1.11929,-2.5 2.5,-2.5c1.38071,0 2.5,1.11929 2.5,2.5c0,1.38071 -1.11929,2.5 -2.5,2.5c-1.38071,0 -2.5,-1.11929 -2.5,-2.5z" fill="#ffc9dd" stroke-width="0.5"/><path d="M33.0906,251.24671c-2.37171,-0.79057 -1.58114,-3.16228 -1.58114,-3.16228l1.24508,-3.52376c3.65485,-3.65485 3.15544,-8.20101 1.75492,-12.8951c-0.21097,-0.70712 0.01249,-1.63852 -0.51693,-2.15257c-1.66627,-1.61787 -7.26005,-2.83264 -9.41682,-3.15673c-1.2049,-0.18105 -2.52784,0.30014 -3.65125,-0.17157c-1.16479,-0.48909 -1.87404,-1.69463 -2.81106,-2.54193c0,0 -1.76777,-1.76776 0,-3.53553c1.76777,-1.76776 3.53553,0 3.53553,0c0.39632,0.48603 0.59958,1.24374 1.18894,1.45807c0.73774,0.26828 1.57079,-0.2765 2.34875,-0.17157c1.24867,0.16842 6.19552,1.50281 7.65125,2.17157c1.69899,0.78051 3.62053,1.33902 4.93192,2.6717c0.96404,0.97968 1.0217,2.55272 1.48307,3.84743c2.02298,5.67698 2.21766,12.64216 -2.24508,17.1049l-0.75492,2.47624c0,0 -0.79057,2.37171 -3.16228,1.58114z" fill="#ffc9dd" stroke-width="0.5"/><path d="M100.25288,-86.91557c0.79057,2.37171 -1.58114,3.16228 -1.58114,3.16228l-3,1c0,0 -2.3717,0.79057 -3.16227,-1.58114c-0.79057,-2.37171 1.58113,-3.16228 1.58113,-3.16228l3,-1c0,0 2.37171,-0.79057 3.16228,1.58114z" fill="#ffffff" stroke-width="0.5"/></g></g></svg>