<svg version="1.1" xmlns="http://www.w3.org/2000/svg" xmlns:xlink="http://www.w3.org/1999/xlink" width="464.0074" height="260.01957" viewBox="0,0,464.0074,260.01957"><defs><linearGradient x1="65" y1="203.62501" x2="139" y2="203.62501" gradientUnits="userSpaceOnUse" id="color-1"><stop offset="0" stop-color="#ffbac5"/><stop offset="1" stop-color="#eeffba"/></linearGradient><linearGradient x1="65" y1="203.62501" x2="139" y2="203.62501" gradientUnits="userSpaceOnUse" id="color-2"><stop offset="0" stop-color="#ffbac5"/><stop offset="1" stop-color="#eeffba"/></linearGradient><linearGradient x1="65" y1="203.62501" x2="139" y2="203.62501" gradientUnits="userSpaceOnUse" id="color-3"><stop offset="0" stop-color="#ffbac5"/><stop offset="1" stop-color="#eeffba"/></linearGradient><linearGradient x1="65" y1="203.62501" x2="139" y2="203.62501" gradientUnits="userSpaceOnUse" id="color-4"><stop offset="0" stop-color="#ffbac5"/><stop offset="1" stop-color="#eeffba"/></linearGradient><linearGradient x1="53" y1="240.62501" x2="127" y2="240.62501" gradientUnits="userSpaceOnUse" id="color-5"><stop offset="0" stop-color="#ffbac5"/><stop offset="1" stop-color="#eeffba"/></linearGradient><linearGradient x1="53" y1="240.62501" x2="127" y2="240.62501" gradientUnits="userSpaceOnUse" id="color-6"><stop offset="0" stop-color="#ffbac5"/><stop offset="1" stop-color="#eeffba"/></linearGradient><linearGradient x1="65" y1="203.62501" x2="139" y2="203.62501" gradientUnits="userSpaceOnUse" id="color-7"><stop offset="0" stop-color="#ffbac5"/><stop offset="1" stop-color="#eeffba"/></linearGradient><linearGradient x1="65" y1="203.62501" x2="139" y2="203.62501" gradientUnits="userSpaceOnUse" id="color-8"><stop offset="0" stop-color="#ffbac5"/><stop offset="1" stop-color="#eeffba"/></linearGradient><linearGradient x1="212" y1="91.62501" x2="289" y2="91.62501" gradientUnits="userSpaceOnUse" id="color-9"><stop offset="0" stop-color="#eeffba"/><stop offset="1" stop-color="#bdffba"/></linearGradient><linearGradient x1="212" y1="91.62501" x2="289" y2="91.62501" gradientUnits="userSpaceOnUse" id="color-10"><stop offset="0" stop-color="#eeffba"/><stop offset="1" stop-color="#bdffba"/></linearGradient><linearGradient x1="212" y1="91.62501" x2="289" y2="91.62501" gradientUnits="userSpaceOnUse" id="color-11"><stop offset="0" stop-color="#eeffba"/><stop offset="1" stop-color="#bdffba"/></linearGradient><linearGradient x1="212" y1="91.62501" x2="289" y2="91.62501" gradientUnits="userSpaceOnUse" id="color-12"><stop offset="0" stop-color="#eeffba"/><stop offset="1" stop-color="#bdffba"/></linearGradient><linearGradient x1="185" y1="95.62501" x2="262" y2="95.62501" gradientUnits="userSpaceOnUse" id="color-13"><stop offset="0" stop-color="#eeffba"/><stop offset="1" stop-color="#bdffba"/></linearGradient><linearGradient x1="185" y1="95.62501" x2="262" y2="95.62501" gradientUnits="userSpaceOnUse" id="color-14"><stop offset="0" stop-color="#eeffba"/><stop offset="1" stop-color="#bdffba"/></linearGradient><linearGradient x1="404" y1="154.125" x2="473" y2="154.125" gradientUnits="userSpaceOnUse" id="color-15"><stop offset="0" stop-color="#ffbaba"/><stop offset="1" stop-color="#ffbaf2"/></linearGradient><linearGradient x1="404" y1="154.125" x2="473" y2="154.125" gradientUnits="userSpaceOnUse" id="color-16"><stop offset="0" stop-color="#ffbaba"/><stop offset="1" stop-color="#ffbaf2"/></linearGradient></defs><g transform="translate(-32.36869,-49.81254)"><g data-paper-data="{&quot;isPaintingLayer&quot;:true}" fill-rule="nonzero" stroke-linecap="butt" stroke-linejoin="miter" stroke-miterlimit="10" stroke-dasharray="" stroke-dashoffset="0" style="mix-blend-mode: normal"><path d="" fill="url(#color-1)" stroke="url(#color-2)" stroke-width="34"/><path d="" fill="url(#color-3)" stroke="url(#color-4)" stroke-width="34"/><path d="M53.3089,245.03857c4.81068,0.26891 9.64921,0.40394 14.4963,0.43185c-0.56068,0.23606 -9.27958,1.202 -10.11138,2.6871c-4.88576,8.72301 -5.66646,35.35706 -9.15549,37.20063c-0.55826,-1.72002 5.02764,-38.49716 4.77057,-40.31958z" fill="url(#color-5)" stroke="url(#color-6)" stroke-width="34"/><path d="" fill="url(#color-7)" stroke="url(#color-8)" stroke-width="34"/><path d="M289,91.62501c0,0.03805 -0.00007,0.0761 -0.0002,0.11413c-4.66291,0.56949 -9.3232,1.16778 -13.98158,1.78642l-0.05555,-0.47217l0.11859,-1.62076l-1.72422,-3.00143l-1.19824,-3.16336l-0.00254,-0.00232l5.31401,-3.6359l0.41805,-0.47114l0.57058,-0.26676l6.35163,-5.1607c2.67872,4.76946 4.18948,10.17133 4.18948,15.89399z" fill="url(#color-9)" stroke="url(#color-10)" stroke-width="34"/><path d="" fill="url(#color-11)" stroke="url(#color-12)" stroke-width="34"/><path d="M254.06113,116.91441c-0.38336,0.45412 -0.77869,0.89946 -1.18556,1.33561h-2.87556v-0.80088c1.35354,-0.17998 2.70725,-0.35829 4.06113,-0.53472z" fill="url(#color-13)" stroke="url(#color-14)" stroke-width="34"/><path d="M437.16745,141.17782c2.23834,-6.34293 3.9859,-12.88049 6.19364,-19.23271c11.92665,1.58441 21.89412,8.91378 26.64678,18.92119c-8.90983,0.37876 -18.29214,0.84889 -28.68899,1.39918c-1.31564,0.06964 -2.99955,0.3249 -4.82367,0.67837c0.23603,-0.58162 0.46149,-1.16881 0.67224,-1.76603z" fill="url(#color-15)" stroke="url(#color-16)" stroke-width="34"/><path d="" fill="#bdff91" stroke="none" stroke-width="0.5"/></g></g></svg>