<svg version="1.1" xmlns="http://www.w3.org/2000/svg" xmlns:xlink="http://www.w3.org/1999/xlink" width="112.94053" height="65.18352" viewBox="0,0,112.94053,65.18352"><defs><linearGradient x1="252.90444" y1="149.43395" x2="252.90444" y2="206.49815" gradientUnits="userSpaceOnUse" id="color-1"><stop offset="0" stop-color="#ff24e3"/><stop offset="1" stop-color="#24d3ff"/></linearGradient><linearGradient x1="252.90444" y1="149.43395" x2="252.90444" y2="206.49815" gradientUnits="userSpaceOnUse" id="color-2"><stop offset="0" stop-color="#ff24e3"/><stop offset="1" stop-color="#24d3ff"/></linearGradient></defs><g transform="translate(-196.78666,-145.95434)"><g data-paper-data="{&quot;isPaintingLayer&quot;:true}" fill-rule="nonzero" stroke-linejoin="miter" stroke-miterlimit="10" stroke-dasharray="" stroke-dashoffset="0" style="mix-blend-mode: normal"><g stroke="#703d00" stroke-linecap="round"><path d="M250.20413,147.74362c14.181,0 24.707,3.5606 36.336,9.6833c5.526,2.9163 10.795,8.1418 13.864,15.5938c2.43,5.9589 3.743,14.6498 1.55,20.6742c-2.536,6.9668 -8.397,10.0937 -13.4,11.8584c-11.446,4.0194 -23.406,4.6185 -35.15,4.1348c-13.222,0.011 -26.656,-0.4181 -39.536,-5.5484c-4.868,-1.938 -9.207,-7.6768 -12.114,-14.0335c-1.865,-4.2441 -3.283,-11.4106 -1.55,-16.5394c2.893,-7.3506 8.09,-13.0364 13.664,-16.1399c11.563,-6.402 22.155,-9.6833 36.336,-9.6833z" fill="#a85b00" stroke-width="2.61452"/><path d="M250.06543,147.84902c14.188,0 24.6504,0.6328 36.3531,5.3386c5.4439,2.1915 13.1254,7.5611 12.9243,14.1102c0.2011,6.328 -7.8717,10.0909 -12.9243,11.644c-11.9632,3.6755 -24.2445,4.5535 -36.6459,4.352c-12.4325,0.0028 -25.4135,-1.5404 -37.7143,-5.7078c-4.0974,-1.3826 -10.3375,-4.951 -9.8067,-10.2882c0.2966,-6.862 6.53,-12.1527 11.4607,-14.1102c11.7299,-4.6537 22.1651,-5.3386 36.3531,-5.3386z" fill="#a85b00" stroke-width="2.4183"/><path d="M253.23743,148.14642c21.1553,-0.0263 25.91,3.9287 38.25,7.3167c5.802,1.594 12.416,5.412 14.45,10.85c2.832,7.58 2.633,20.871 -1.05,24.25c-2.611,2.401 -6.772,-11.258 -11.35,-11.85c-2.897,-0.683 -0.438,7.684 -3.6,9.3c-4.3,2.174 -12.044,-4.568 -14.45,-1.05c-2.726,3.995 5.332,10.527 3.6,15.5c-0.853,3.228 -7.367,5.247 -9.3,2.6c-3.684,-5.05 0.54,-13.195 -2.6,-18.6c-1.649,-2.845 -6.852,-2.975 -9.3,-1.05c-4.601,3.631 -4.068,11.637 -8.75,15c-2.505,1.797 -6.482,0.54 -8.8,-1.05c-5.86,-4.952 -7.327,-16.19 -14.45,-17.55c-5.374,-1.033 -8.221,12.954 -11.9,11.35c-4.157,-1.832 0.506,-15.752 -3.1,-19.1c-2.229,-2.06 -6.49,9.902 -8.75,8.25c-2.626,-2.233 -2.936,-11.016 -1.05,-16c1.968,-5.04 6.556,-9.716 11.758,-11.162c13.007,-3.611 10.872,-5.4684 40.392,-7.0047z" fill="#703d00" stroke-width="1.99513"/></g><path d="M251.15413,146.96652c12.822,0.3158 25.952,1.0596 38.25,4.7835c6.37,1.934 14.289,5.8884 17.2,12.4476c3.122,7.1732 2.923,20.8244 -1.55,24.2778c-3.1,2.2817 -7.987,-11.998 -13.6,-12.8076c-3.087,-0.4753 -0.438,7.9047 -3.6,9.5671c-4.3,2.2364 -12.044,-4.6992 -14.45,-1.0802c-2.726,4.1098 5.332,10.8294 3.6,15.9452c-0.853,3.3207 -7.367,5.3977 -9.3,2.6747c-3.684,-5.1951 0.54,-13.574 -2.6,-19.1342c-1.649,-2.9267 -6.852,-3.0605 -9.3,-1.0802c-4.601,3.7353 -4.068,11.9712 -8.75,15.4308c-2.505,1.8486 -6.482,0.5555 -8.8,-1.0801c-5.86,-5.0942 -7.327,-16.655 -14.45,-18.0541c-5.374,-1.0626 -8.221,13.3261 -11.9,11.676c-4.157,-1.8846 0.506,-16.2044 -3.1,-19.6486c-2.229,-2.1191 -6.49,10.1864 -8.75,8.487c-2.626,-2.2971 -2.936,-11.3324 -1.05,-16.4595c1.968,-5.1848 6.556,-9.9951 11.758,-11.4826c13.007,-3.7147 26.872,-4.2538 40.392,-4.4626z" fill="url(#color-1)" stroke="url(#color-2)" stroke-width="2.02398" stroke-linecap="round"/><path d="M252.52913,158.26312c3.276,0 6.245,0.23 8.395,0.601c2.149,0.371 3.48,0.883 3.48,1.449c0,0.566 -1.331,1.078 -3.48,1.449c-2.15,0.371 -5.119,0.601 -8.395,0.601c-3.276,0 -6.245,-0.23 -8.395,-0.601c-2.149,-0.371 -3.48,-0.883 -3.48,-1.449c0,-0.566 1.331,-1.078 3.48,-1.449c2.15,-0.371 5.119,-0.601 8.395,-0.601z" fill="#a85b00" stroke="#703d00" stroke-width="1.99513" stroke-linecap="butt"/><g data-paper-data="{&quot;origPos&quot;:null}" fill="none" stroke="#00fff8" stroke-width="1.99513" stroke-linecap="round"><path d="M228.75413,172.55972l3.1,-6.7"/><path d="M249.95413,150.51312h6.2"/><path d="M253.05413,178.91312l6.2,-2.05"/><path d="M276.80413,171.16312l-5.7,-2.05"/><path d="M221.00413,177.91312l-5.15,2.05"/><path d="M202.95413,167.90972v-4.15"/><path d="M232.40413,149.51312l-4.65,0.5"/><path d="M306.25413,176.86312v-5.7"/><path d="M271.65413,161.36312h4.65"/><path d="M270.60413,149.51312h3.1z"/></g><g data-paper-data="{&quot;origPos&quot;:null}" fill="none" stroke="#00fff8" stroke-width="1.99513" stroke-linecap="round"><path d="M229.80413,157.76312l-5.15,1"/><path d="M241.15413,171.16312h6.2"/><path d="M281.95413,165.51312v-4.65"/><path d="M267.00413,154.66312l-5.2,-3.1"/><path d="M300.05413,169.11312v5.7"/><path d="M290.75413,157.21312h4.15"/><path d="M209.65413,164.96312l4.65,-4.65"/></g><g data-paper-data="{&quot;origPos&quot;:null}" fill="none" stroke-width="1.99513" stroke-linecap="round"><path d="M215.35413,171.16312l4.1,-1" stroke="#00fff8"/><path d="M239.10413,151.56312l4.15,3.6" stroke="#ffffff"/><path d="M246.15073,183.56312l-4.1,3.65" stroke="#ffffff"/><path d="M267.85073,181.01312l-4.15,-3.1" stroke="#ffffff"/><path d="M277.15073,178.41312l-0.5,3.1z" stroke="#ffffff"/><path d="M282.30073,153.11312h-4.65" stroke="#ffffff"/><path d="M294.70073,167.56312l-4.1,1.05" stroke="#ffffff"/><path d="M203.95413,157.76312l5.7,-2.1" stroke="#ffffff"/><path d="M218.25073,153.11312l1.55,3.6z" stroke="#ffffff"/><path d="M262.15073,165.51312l0.55,2.55z" stroke="#ffffff"/></g><path d="M225.92121,193.40556c-0.33333,-0.11111 -1.66667,-0.55556 -2,-0.66667c0,0 -0.94868,-0.31623 -0.63246,-1.26491c0.31623,-0.94868 1.26491,-0.63246 1.26491,-0.63246c0.33333,0.11111 0.66667,0.22222 1,0.33333l0.64003,0.21334c0.01268,-0.11703 0.02835,-0.23316 0.04693,-0.34831c-0.70451,-0.58624 -1.32306,-1.28271 -1.83524,-2.02832c0,0 -0.5547,-0.83205 0.27735,-1.38675c0.83205,-0.5547 1.38675,0.27735 1.38675,0.27735c0.23136,0.36199 0.52419,0.73369 0.85776,1.08159c1.12998,-2.14659 3.3825,-3.61023 5.97686,-3.61023c3.72792,0 6.75,3.02208 6.75,6.75c0,3.72792 -3.02208,6.75 -6.75,6.75c-3.27175,0 -5.99983,-2.32773 -6.61849,-5.41743c-0.20748,0.00176 -0.36441,-0.05055 -0.36441,-0.05055z" fill="#000000" stroke="none" stroke-width="0.5" stroke-linecap="butt"/><path d="M279.85279,193.80732c0.31623,0.94869 -0.63246,1.26491 -0.63246,1.26491l-1,0.33334c-0.74508,0.23959 -1.53363,0.37594 -2.31623,0.38465c0,0 -0.04924,0 -0.12585,-0.01092c-1.03138,2.40758 -3.42246,4.09425 -6.20748,4.09425c-3.72792,0 -6.75,-3.02208 -6.75,-6.75c0,-3.72792 3.02208,-6.75 6.75,-6.75c2.90777,0 5.38611,1.83863 6.33585,4.41671c0.5682,0.00841 1.14483,-0.09459 1.68126,-0.28205l-0.05755,-0.09176c0,0 0.70711,-0.70711 1.41421,0c0.70711,0.70711 0,1.41421 0,1.41421l-0.72421,0.57491c-0.61576,0.198 -1.2612,0.3255 -1.90845,0.36871c0.0059,0.11568 0.00888,0.23213 0.00888,0.34927c0,0.22127 -0.01064,0.44007 -0.03145,0.65588c0.44191,-0.03117 0.88234,-0.12578 1.29856,-0.27123l1,-0.33333c0,0 0.94869,-0.31623 1.26492,0.63246z" fill="#000000" stroke="none" stroke-width="0.5" stroke-linecap="butt"/><path d="M266.32077,195.79021c0,-0.69036 0.55964,-1.25 1.25,-1.25c0.69036,0 1.25,0.55964 1.25,1.25c0,0.69036 -0.55964,1.25 -1.25,1.25c-0.69036,0 -1.25,-0.55964 -1.25,-1.25z" fill="#ffffff" stroke="none" stroke-width="0.5" stroke-linecap="butt"/><path d="M228.98744,194.79021c0,-0.69036 0.55964,-1.25 1.25,-1.25c0.69036,0 1.25,0.55964 1.25,1.25c0,0.69036 -0.55964,1.25 -1.25,1.25c-0.69036,0 -1.25,-0.55964 -1.25,-1.25z" fill="#ffffff" stroke="none" stroke-width="0.5" stroke-linecap="butt"/><path d="M268.73744,191.45688c0,-1.38071 1.11929,-2.5 2.5,-2.5c1.38071,0 2.5,1.11929 2.5,2.5c0,1.38071 -1.11929,2.5 -2.5,2.5c-1.38071,0 -2.5,-1.11929 -2.5,-2.5z" fill="#ffffff" stroke="none" stroke-width="0.5" stroke-linecap="butt"/><path d="M231.4041,191.12354c0,-1.38071 1.11929,-2.5 2.5,-2.5c1.38071,0 2.5,1.11929 2.5,2.5c0,1.38071 -1.11929,2.5 -2.5,2.5c-1.38071,0 -2.5,-1.11929 -2.5,-2.5z" fill="#ffffff" stroke="none" stroke-width="0.5" stroke-linecap="butt"/><path d="M256.23743,200.79021c0,0.72434 -0.52467,0.92401 -0.81393,0.97905c-2.43294,3.07344 -5.7603,2.17332 -8.74077,0.18633c0,0 -0.83205,-0.5547 -0.27735,-1.38675c0.5547,-0.83205 1.38675,-0.27735 1.38675,-0.27735c2.10254,1.40169 4.58429,2.59704 6.27992,-0.05598l1.16538,-0.4453c0,0 1,0 1,1z" fill="#000000" stroke="none" stroke-width="0.5" stroke-linecap="butt"/></g></g></svg>