<svg version="1.1" xmlns="http://www.w3.org/2000/svg" xmlns:xlink="http://www.w3.org/1999/xlink" width="61.54359" height="94.47918" viewBox="0,0,61.54359,94.47918"><g transform="translate(-209.07908,-133.34464)"><g data-paper-data="{&quot;isPaintingLayer&quot;:true}" stroke="none" stroke-linecap="butt" stroke-linejoin="miter" stroke-miterlimit="10" stroke-dasharray="" stroke-dashoffset="0" style="mix-blend-mode: normal"><g fill="#55ff00" fill-rule="evenodd" stroke-width="1"><path d="M233.84801,150.7053c-1.576,-4.1808 -3.072,-11.3639 -0.868,-15.5327c2.024,-3.8241 5.564,-1.3589 7.252,4.7059c1.424,5.1027 1.168,13.5124 1.232,15.2882c0.072,1.9601 -0.164,3.8801 -0.248,5.8282c-0.068,1.6435 0.52,4.3813 -0.068,5.8644c-2.948,-5.1509 -5.212,-10.6104 -7.3,-16.154z"/><path d="M241.18401,166.7791c-2.336,0.1203 -5.24,-2.2527 -7.04,-3.5475c-0.96,-0.6934 -12.904,-10.3457 -16.156,-15.1438c-1.468,-2.1646 -2.848,-4.3211 -2.492,-7.0389c0.476,-3.6436 2.956,-4.4734 6.168,-2.886c4.98,2.4612 9.144,7.9728 11.756,12.7588c1.3,2.377 2.536,4.8102 3.852,7.1591c1.272,2.2808 3.972,6.0167 3.912,8.6983z"/><path d="M240.74401,166.65079c-0.152,-1.6875 0.972,-3.9443 1.356,-5.5877c0.4,-1.7597 0.8,-3.4914 1.368,-5.211c1.0727,-3.5351 2.3509,-7.0043 3.828,-10.3899c1.328,-2.9221 2.748,-6.1649 4.892,-8.6061c1.828,-2.0844 5.304,-4.285 7.82,-1.7677c2.172,2.1766 0.8,6.674 0.032,9.2194c-1.064,3.4152 -2.928,6.2051 -5.056,9.019c-1.984,2.6215 -11.548,12.4302 -14.24,13.324z"/><path d="M241.09201,166.7671c1.104,-1.4471 2.916,-2.6496 4.256,-3.9243c1.736,-1.6514 3.508,-3.2588 5.272,-4.8742c2.564,-2.345 5.304,-4.75 8.896,-5.211c1.3,-0.1644 3.664,-0.2445 4.112,1.3669c0.4,1.4831 -1.548,3.1787 -2.508,3.9763c-1.4245,1.1374 -2.9495,2.1424 -4.556,3.0024c-0.892,0.513 -11.564,4.5335 -15.472,5.6639z"/><path d="M240.83601,166.8432c-0.272,-4.9664 0.304,-9.8407 0.464,-14.7751c0.016,-2.5733 0.3002,-5.1379 0.848,-7.6521c0.28,-1.1464 1.704,-5.2109 3.16,-2.9021c0.84,1.3268 0.304,4.241 0.252,5.7201c-0.076,2.1405 -0.1,4.4854 -0.828,6.5337c-0.48,1.3348 -3.632,13.0956 -3.896,13.0755z"/></g><g fill-rule="evenodd" stroke-width="1"><path d="M240.44401,227.8236c-3.9406,0.0188 -7.7932,-1.167 -11.044,-3.3991c-2.16,-1.5032 -3.864,-3.768 -5.324,-5.9325c-2.18,-3.2348 -4.32,-6.5378 -6.332,-9.8848c-3.6429,-6.0232 -6.3081,-12.588 -7.896,-19.449c-1.248,-5.5557 -1.64,-15.8052 4.116,-19.2405c2.948,-1.7677 7.316,-2.7778 10.656,-3.4673c2.892,-0.5972 5.744,-1.3468 8.716,-1.6034c1.696,-0.1362 3.408,-0.2926 5.088,-0.028c1.292,0.2044 1.92,0.9179 2.852,0.9259c0.18,0 1.352,-0.6533 1.676,-0.7335c0.6592,-0.1294 1.3284,-0.2018 2,-0.2165c2.136,-0.1242 4.144,0.2165 6.24,0.5332c5.412,0.8016 11.12,2.87 15.356,6.4415c5.284,4.4534 4.424,11.2677 2.96,17.3966c-1.6,6.7503 -7.316,22.0946 -12.8,29.5342c-5.484,7.4397 -13.016,9.1393 -16.264,9.1232z" fill="#f01446"/><path d="M214.02801,174.5996c0,0 0.572,-1.5112 3.1,-2.842c3.1929,-1.5654 6.7769,-2.1484 10.3,-1.6755c8.188,1.2626 7.168,28.3036 -2.592,28.3036c-5.288,0 -8.864,-2.2808 -10.54,-7.4557c-1.416,-4.3773 -2.432,-11.1275 -0.268,-16.3304z" fill="#f00a78"/><path d="M234.20801,208.18629c0,-0.56673 0.44771,-1.02616 1,-1.02616c0.55229,0 1,0.45943 1,1.02616c0,0.56673 -0.44771,1.02616 -1,1.02616c-0.55229,0 -1,-0.45943 -1,-1.02616z" fill="#f04650"/><path d="M253.27601,179.81456c0,-0.56673 0.44771,-1.02616 1,-1.02616c0.55229,0 1,0.45943 1,1.02616c0,0.56673 -0.44771,1.02616 -1,1.02616c-0.55229,0 -1,-0.45942 -1,-1.02616z" fill="#f04650"/><path d="M250.13601,175.04051c0,-0.56673 0.44771,-1.02616 1,-1.02616c0.55229,0 1,0.45943 1,1.02616c0,0.56673 -0.44771,1.02616 -1,1.02616c-0.55229,0 -1,-0.45943 -1,-1.02616z" fill="#f04650"/><path d="M257.16801,175.51751c0,-0.56673 0.44772,-1.02616 1,-1.02616c0.55228,0 1,0.45942 1,1.02616c0,0.56673 -0.44772,1.02616 -1,1.02616c-0.55228,0 -1,-0.45943 -1,-1.02616z" fill="#f04650"/><path d="M245.76001,170.24241c0,-0.56673 0.44771,-1.02616 1,-1.02616c0.55229,0 1,0.45943 1,1.02616c0,0.56673 -0.44771,1.02616 -1,1.02616c-0.55229,0 -1,-0.45943 -1,-1.02616z" fill="#f04650"/><path d="M237.57201,172.81583c0,-0.56673 0.44771,-1.02616 1,-1.02616c0.55229,0 1,0.45943 1,1.02616c0,0.56673 -0.44771,1.02616 -1,1.02616c-0.55229,0 -1,-0.45943 -1,-1.02616z" fill="#f04650"/><path d="M230.85601,172.11034c0,-0.56673 0.44771,-1.02617 1,-1.02617c0.55229,0 1,0.45943 1,1.02617c0,0.56673 -0.44771,1.02616 -1,1.02616c-0.55229,0 -1,-0.45943 -1,-1.02616z" fill="#f04650"/><path d="M222.34801,171.91794c0,-0.56673 0.44771,-1.02616 1,-1.02616c0.55229,0 1,0.45943 1,1.02616c0,0.56673 -0.44771,1.02616 -1,1.02616c-0.55229,0 -1,-0.45943 -1,-1.02616z" fill="#f04650"/><path d="M228.37601,180.32363c0,-0.56673 0.44771,-1.02616 1,-1.02616c0.55229,0 1,0.45943 1,1.02616c0,0.56673 -0.44771,1.02616 -1,1.02616c-0.55229,0 -1,-0.45943 -1,-1.02616z" fill="#f04650"/><path d="M219.76801,179.82658c0,-0.56673 0.44771,-1.02616 1,-1.02616c0.55229,0 1,0.45943 1,1.02616c0,0.56673 -0.44771,1.02616 -1,1.02616c-0.55229,0 -1,-0.45943 -1,-1.02616z" fill="#f04650"/><path d="M244.48801,210.50317c0,-0.56673 0.44771,-1.02616 1,-1.02616c0.55229,0 1,0.45943 1,1.02616c0,0.56673 -0.44771,1.02616 -1,1.02616c-0.55229,0 -1,-0.45943 -1,-1.02616z" fill="#f04650"/><path d="M241.33201,178.75633c0,-0.56673 0.44771,-1.02616 1,-1.02616c0.55229,0 1,0.45943 1,1.02616c0,0.56673 -0.44771,1.02616 -1,1.02616c-0.55229,0 -1,-0.45943 -1,-1.02616z" fill="#f04650"/><path d="M243.61201,185.33418c0,-0.56673 0.44771,-1.02616 1,-1.02616c0.55229,0 1,0.45942 1,1.02616c0,0.56673 -0.44771,1.02617 -1,1.02617c-0.55229,0 -1,-0.45943 -1,-1.02617z" fill="#f04650"/><path d="M235.86001,180.4038c0,-0.56673 0.44771,-1.02616 1,-1.02616c0.55229,0 1,0.45943 1,1.02616c0,0.56673 -0.44771,1.02616 -1,1.02616c-0.55229,0 -1,-0.45943 -1,-1.02616z" fill="#f04650"/><path d="M227.27601,214.16688c0,-0.56673 0.44771,-1.02616 1,-1.02616c0.55229,0 1,0.45943 1,1.02616c0,0.56673 -0.44771,1.02616 -1,1.02616c-0.55229,0 -1,-0.45943 -1,-1.02616z" fill="#f04650"/><path d="M234.20801,186.77321c0,-0.56673 0.44771,-1.02616 1,-1.02616c0.55229,0 1,0.45942 1,1.02616c0,0.56673 -0.44771,1.02616 -1,1.02616c-0.55229,0 -1,-0.45943 -1,-1.02616z" fill="#f04650"/><path d="M222.38401,203.74895c0,-0.56673 0.44771,-1.02616 1,-1.02616c0.55229,0 1,0.45943 1,1.02616c0,0.56673 -0.44771,1.02616 -1,1.02616c-0.55229,0 -1,-0.45943 -1,-1.02616z" fill="#f04650"/><path d="M229.22801,193.51941c0,-0.56673 0.44771,-1.02616 1,-1.02616c0.55229,0 1,0.45943 1,1.02616c0,0.56673 -0.44771,1.02616 -1,1.02616c-0.55229,0 -1,-0.45943 -1,-1.02616z" fill="#f04650"/><path d="M221.93601,193.25085c0,-0.56673 0.44771,-1.02616 1,-1.02616c0.55229,0 1,0.45943 1,1.02616c0,0.56673 -0.44771,1.02616 -1,1.02616c-0.55229,0 -1,-0.45943 -1,-1.02616z" fill="#f04650"/><path d="M254.44001,191.76372c0,-0.56673 0.44771,-1.02616 1,-1.02616c0.55229,0 1,0.45943 1,1.02616c0,0.56673 -0.44771,1.02616 -1,1.02616c-0.55229,0 -1,-0.45943 -1,-1.02616z" fill="#f04650"/><path d="M260.76401,180.31962c0,-0.56673 0.44772,-1.02616 1,-1.02616c0.55228,0 1,0.45942 1,1.02616c0,0.56673 -0.44772,1.02616 -1,1.02616c-0.55228,0 -1,-0.45943 -1,-1.02616z" fill="#f04650"/><path d="M261.38801,190.4249c0,-0.56673 0.44772,-1.02616 1,-1.02616c0.55228,0 1,0.45943 1,1.02616c0,0.56673 -0.44772,1.02616 -1,1.02616c-0.55228,0 -1,-0.45943 -1,-1.02616z" fill="#f04650"/><path d="M264.772,185.05359c0,-0.56673 0.44772,-1.02616 1,-1.02616c0.55228,0 1,0.45943 1,1.02616c0,0.56673 -0.44772,1.02616 -1,1.02616c-0.55228,0 -1,-0.45943 -1,-1.02616z" fill="#f04650"/><path d="M264.96801,175.43734c0,-0.56673 0.44772,-1.02616 1,-1.02616c0.55228,0 1,0.45943 1,1.02616c0,0.56673 -0.44772,1.02616 -1,1.02616c-0.55228,0 -1,-0.45943 -1,-1.02616z" fill="#f04650"/><path d="M253.15201,169.08798c0,-0.56673 0.44771,-1.02616 1,-1.02616c0.55229,0 1,0.45943 1,1.02616c0,0.56673 -0.44771,1.02616 -1,1.02616c-0.55229,0 -1,-0.45943 -1,-1.02616z" fill="#f04650"/><path d="M213.80001,176.16287c0,-0.56673 0.44771,-1.02616 1,-1.02616c0.55229,0 1,0.45943 1,1.02616c0,0.56673 -0.44771,1.02616 -1,1.02616c-0.55229,0 -1,-0.45943 -1,-1.02616z" fill="#f04650"/><path d="M212.06801,189.90781c0,-0.56673 0.44771,-1.02616 1,-1.02616c0.55229,0 1,0.45943 1,1.02616c0,0.56673 -0.44771,1.02616 -1,1.02616c-0.55229,0 -1,-0.45943 -1,-1.02616z" fill="#f04650"/><path d="M210.32801,183.58249c0,-0.56673 0.44771,-1.02616 1,-1.02616c0.55229,0 1,0.45943 1,1.02616c0,0.56673 -0.44771,1.02616 -1,1.02616c-0.55229,0 -1,-0.45943 -1,-1.02616z" fill="#f04650"/><path d="M240.40001,190.14431c0,-0.56673 0.44771,-1.02616 1,-1.02616c0.55229,0 1,0.45943 1,1.02616c0,0.56673 -0.44771,1.02616 -1,1.02616c-0.55229,0 -1,-0.45943 -1,-1.02616z" fill="#f04650"/><path d="M257.808,199.31161c0,-0.56673 0.44772,-1.02616 1,-1.02616c0.55228,0 1,0.45942 1,1.02616c0,0.56673 -0.44772,1.02616 -1,1.02616c-0.55228,0 -1,-0.45943 -1,-1.02616z" fill="#f04650"/><path d="M246.92938,195.74754c-0.51386,-0.20242 -0.76239,-0.79305 -0.55512,-1.31924c0.20727,-0.52619 0.79186,-0.78867 1.30571,-0.58625c0.51386,0.20242 0.76239,0.79306 0.55512,1.31925c-0.20727,0.52619 -0.79186,0.78866 -1.30572,0.58624z" fill="#f04650"/><path d="M249.49601,183.58249c0,-0.56673 0.44771,-1.02616 1,-1.02616c0.55229,0 1,0.45943 1,1.02616c0,0.56673 -0.44771,1.02616 -1,1.02616c-0.55229,0 -1,-0.45943 -1,-1.02616z" fill="#f04650"/><path d="M237.01601,198.9268c0,-0.56673 0.44771,-1.02616 1,-1.02616c0.55229,0 1,0.45943 1,1.02616c0,0.56673 -0.44771,1.02616 -1,1.02616c-0.55229,0 -1,-0.45943 -1,-1.02616z" fill="#f04650"/><path d="M256.82801,185.6308c0,-0.56673 0.44772,-1.02616 1,-1.02616c0.55228,0 1,0.45943 1,1.02616c0,0.56673 -0.44772,1.02616 -1,1.02616c-0.55228,0 -1,-0.45943 -1,-1.02616z" fill="#f04650"/><path d="M258.08001,207.99388c0,-0.56673 0.44772,-1.02616 1,-1.02616c0.55228,0 1,0.45942 1,1.02616c0,0.56673 -0.44772,1.02616 -1,1.02616c-0.55228,0 -1,-0.45943 -1,-1.02616z" fill="#f04650"/><path d="M249.72401,202.3981c0,-0.56673 0.44771,-1.02616 1,-1.02616c0.55229,0 1,0.45943 1,1.02616c0,0.56673 -0.44771,1.02616 -1,1.02616c-0.55229,0 -1,-0.45943 -1,-1.02616z" fill="#f04650"/><path d="M224.71201,186.83734c0,-0.56673 0.44771,-1.02616 1,-1.02616c0.55229,0 1,0.45943 1,1.02616c0,0.56673 -0.44771,1.02616 -1,1.02616c-0.55229,0 -1,-0.45942 -1,-1.02616z" fill="#f04650"/><path d="M217.72801,185.42237c0,-0.56673 0.44771,-1.02616 1,-1.02616c0.55229,0 1,0.45943 1,1.02616c0,0.56673 -0.44771,1.02616 -1,1.02616c-0.55229,0 -1,-0.45942 -1,-1.02616z" fill="#f04650"/></g><path d="M229.66668,195.17711c-1,0 -1,-1 -1,-1c0,-4.33334 0,-9 0,-13.33334c0,0 0,-1 1,-1c1,0 1,1 1,1c0,4.33334 0,8.66666 0,13v0.33334c0,0 0,1 -1,1z" fill="#000000" fill-rule="nonzero" stroke-width="0.5"/><path d="M247.66668,196.17711c-1,0 -1,-1 -1,-1v-0.33333c0,-3.99645 1.02167,-7.98606 1,-12c0,0 0,-1 1,-1c1,0 1,1 1,1c-0.01779,4.01624 -1,8.00767 -1,12v0.33333c0,0 0,1 -1,1z" fill="#000000" fill-rule="nonzero" stroke-width="0.5"/><path d="M244.89444,205.06323c0.44721,0.89443 -0.44721,1.34164 -0.44721,1.34164l-0.38619,0.12482c-3.0065,3.09624 -8.85687,2.64711 -10.34304,-1.70302c0,0 -0.31623,-0.94868 0.63246,-1.26491c0.94868,-0.31623 1.26491,0.63246 1.26491,0.63246c0.92373,2.86253 5.08822,3.06781 6.9903,0.96365l0.94714,-0.54185c0,0 0.89443,-0.44721 1.34164,0.44721z" fill="#000000" fill-rule="nonzero" stroke-width="0.5"/></g></g></svg>