<svg version="1.1" xmlns="http://www.w3.org/2000/svg" xmlns:xlink="http://www.w3.org/1999/xlink" width="627.58167" height="318.04325" viewBox="0,0,627.58167,318.04325"><g transform="translate(56.35065,-117.50239)"><g data-paper-data="{&quot;isPaintingLayer&quot;:true}" fill-rule="nonzero" stroke-linejoin="miter" stroke-miterlimit="10" stroke-dasharray="" stroke-dashoffset="0" style="mix-blend-mode: normal"><path d="M103.5,303.5l22,-142l45,119l-65,10" fill="none" stroke="#ff8800" stroke-width="9.5" stroke-linecap="round"/><path d="M277.5,303.5l27,-161l36,164l-68,-7" fill="none" stroke="#ff8800" stroke-width="9.5" stroke-linecap="round"/><path d="M124.5,178.5l-12,102l55,-7z" fill="#ff8800" stroke="#ff8800" stroke-width="9.5" stroke-linecap="round"/><path d="M305.5,168.5l-21,125l48,6l-25,-119" fill="none" stroke="#ff8800" stroke-width="9.5" stroke-linecap="round"/><path d="M545.73326,270.95259c3.68916,-4.775 8.27724,-8.30646 14.76675,-7.20259c3.52676,0.5999 7.84868,0.85227 10.09837,3.63378c0.23756,0.29372 0.83659,14.60129 0.56215,16.36435c-0.44721,2.87305 -1.81898,5.53771 -2.39482,8.38776c-1.07267,5.30895 -1.91564,10.66871 -2.54251,16.04854c-0.27301,2.34299 0.49248,4.80577 -0.15188,7.07489c-1.09903,3.87021 -2.47047,7.84958 -4.97938,10.99471c-3.97297,4.98046 -12.20389,6.33446 -17.60847,9.03663c-2.80607,1.40298 -5.32554,2.54514 -6.78222,5.17971c-1.89901,2.62324 -3.47022,5.27449 -4.94818,7.9603c0.06699,0.27472 0.13491,0.54921 0.20381,0.82348c0.78377,3.11964 1.86594,6.19013 2.25054,9.38364c0.45144,3.74843 0.29847,7.75321 0.9296,11.46061c0.90172,5.29685 2.25776,9.89158 -1.19382,15.00174c-1.57617,2.33355 -3.60244,4.47374 -6.00582,5.94122c-2.07114,1.26462 -4.76861,1.04616 -7,2c-0.62587,0.26754 -0.73254,1.21519 -1.32115,1.557c-4.9282,2.86191 -10.29426,5.18176 -15.87037,6.3585c-4.43583,1.49907 -8.54212,4.00978 -13.13664,5.03511c-3.18007,0.70968 -6.53421,0.40605 -9.70761,1.14504c-5.7475,1.33842 -11.40623,3.2958 -17.33249,4.04742c-1.21289,0.15383 -2.47727,-0.32687 -3.66751,-0.04742c-2.90362,0.68173 -5.5612,2.21965 -8.46603,2.89622c-8.30729,1.93487 -16.97365,1.40082 -25.35608,2.19756c-6.99212,0.66459 -13.84263,2.64439 -20.85779,2.9894c-4.94719,0.2433 -9.91218,-0.25342 -14.8595,-0.01277c-1.59416,0.07754 -3.10271,0.79833 -4.69017,0.96373c-4.93954,0.51467 -9.89982,0.82981 -14.86013,1.07329c-8.88653,0.43619 -17.65244,0.24401 -26.4497,1.96298c-12.15064,0.07468 -24.00061,1.58255 -36,3c-2.38622,0.28188 -4.86117,-0.63313 -7.20752,-0.1153c-1.5976,0.35258 -2.9254,1.56329 -4.52739,1.89534c-5.17836,1.07333 -10.53385,0.98744 -15.8154,1.25698c-4.38513,0.22379 -8.77368,0.46217 -13.13987,0.92671c-1.79321,0.19079 -3.50966,0.92939 -5.30983,1.03627c-11.37786,0.67549 -22.86101,-0.51365 -34.24193,0.02057c-5.76089,0.27042 -11.42717,1.67193 -17.18441,2.01115c-15.8168,0.93192 -32.10133,0.01087 -47.93587,0.01087c-11.06389,0 -22.75854,-1.18158 -33.7783,-0.02981c-5.78272,0.6044 -11.52379,1.63512 -17.3252,2.02083c-6.07103,0.40363 -12.31466,0.00899 -18.3965,0.00899c-6.01593,0 -13.33776,0.73511 -19.40159,-0.11298c-1.32752,-0.18566 -2.53871,-0.87627 -3.84425,-1.18015c-3.51144,-0.81732 -7.15286,-1.10445 -10.59385,-2.18048c-2.19991,-0.68793 -4.01085,-2.33669 -6.19609,-3.06989c-4.07923,-1.36869 -8.42679,-1.83001 -12.50406,-3.2045c-1.20233,-0.40531 -2.00278,-1.62368 -3.18498,-2.08442c-4.43394,-1.72801 -9.34051,-1.96545 -13.8283,-3.54835c-4.45231,-1.57039 -8.72552,-3.60863 -13.08828,-5.41294c-4.00127,-2.00243 -8.34453,-3.33963 -12.17538,-5.65143c-0.76818,-0.46357 -4.31769,-4.06498 -5.37039,-5.11768c-2.15014,-2.15014 -4.68395,-4.27027 -6.57956,-6.63978c-0.57361,-0.71702 -0.72328,-1.76263 -1.42044,-2.36022c-1.48727,-1.27486 -3.38992,-1.97651 -4.97752,-3.12402c-1.41769,-1.02469 -2.531,-2.45379 -4.01679,-3.37697c-1.02992,-0.63993 -2.38223,-0.61364 -3.41865,-1.243c-1.02412,-0.62189 -1.62585,-1.80235 -2.64195,-2.43727c-3.7148,-2.32126 -7.93831,-3.8163 -11.48345,-6.38923c-1.55322,-1.12726 -2.21191,-3.1585 -3.55752,-4.5269c-1.81939,-1.85021 -4.50048,-2.89632 -5.89435,-5.08507c-7.4438,-11.68875 -2.66071,-27.86383 0.49298,-40.07382c0.20016,-1.75979 -0.02855,-3.62371 0.6005,-5.27938c0.49591,-1.30527 1.8966,-2.07018 2.64075,-3.25167c0.97313,-1.54503 0.75685,-3.61578 1.58294,-5.24418c0.33949,-0.6692 1.14212,-1.02418 1.4857,-1.69128c0.09114,-0.17696 -0.354,-0.26649 -0.37544,-0.46439c-0.10774,-0.99418 0,-2 0,-3c0,-2 -0.08788,-4.00193 0,-6c0.08127,-1.84765 -0.22765,-3.78726 0.37544,-5.53561c0.76211,-2.20934 2.40521,-4.00786 3.60781,-6.0118l2.57956,-2.63978c0,0 1.79245,-1.79244 4.41257,-2.48303c0.14968,-0.15968 0.30278,-0.31119 0.45765,-0.45478c-1.6945,-6.07419 -1.43304,-12.47026 -1.43304,-18.875c0,-0.47407 -0.01215,-3.41064 0.00089,-6.20011c-1.64461,-1.26633 -3.00089,-3.35497 -3.00089,-6.79989c0,-5.14983 3.03095,-7.26872 5.5251,-8.14053c1.20514,-1.90463 3.3626,-3.60947 7.2249,-3.60947c5.72203,0 7.70217,3.74191 8.3874,6.33171c0.07191,0.01943 0.1433,0.04064 0.21407,0.06396c4.41447,1.45521 8.98771,3.69529 13.61217,4.68891c2.66844,0.57334 5.4974,-0.43001 8.18796,0.02841c2.07823,0.35409 3.92767,1.61285 6,2c1.38264,0.2583 2.81673,-0.20457 4.21869,-0.09097c3.78135,0.3064 7.58397,0.4592 11.33449,1.03023c6.21884,0.94684 11.56348,2.3289 17.76694,2.97757c8.54418,0.89342 17.34983,-1.087 25.79442,-2.01642c11.7874,0.07446 22.19069,-4.77753 33.37467,-7.75537c1.76084,-0.46884 3.65771,-0.30642 5.40332,-0.82912c1.65512,-0.4956 3.01976,-1.77436 4.69554,-2.19483c1.40845,-0.35339 2.93527,0.22565 4.35565,-0.07619c3.82404,-0.81263 7.27236,-3.38696 11.2531,-4.04489c1.97635,-0.32665 6.89145,0.05912 8.85789,-0.09608c3.64488,-0.28767 7.28554,-0.62921 10.92342,-0.99489c7.47648,-0.75154 14.92984,-2.01348 22.36439,-2.93142c6.89472,-0.85128 13.44563,-0.90145 20.24555,-1.85653c5.42034,-1.68388 10.02443,-0.6453 15.60875,-1.12108c0.84616,-0.07209 1.55757,-0.71723 2.39125,-0.87892c4.46005,-0.865 9.04136,-0.92134 13.57447,-1.22321c14.18264,-0.94444 28.19975,-1.01086 42.43587,-1.01086c6.00777,0 13.43532,-0.49168 19.40159,0.11299c0.94521,0.0958 1.80583,0.58703 2.70926,0.89202c0.00933,-1.06063 0.0582,-2.10712 0.18173,-3.11721c0.55194,-4.51301 2.41957,-8.75829 3.02298,-13.2069c0.28756,-2.12009 0.68959,-4.22311 1.04742,-6.33249c0.2013,-1.18664 -0.2132,-2.45251 0.12108,-3.60875c0.56687,-1.96071 1.72755,-3.69914 2.53383,-5.57415c1.84722,-4.29575 3.20459,-8.75291 4.68112,-13.18251c0,0 2.767,-8.30098 11.06797,-5.53399c8.30098,2.767 5.53398,11.06798 5.53398,11.06798c-1.52815,4.58445 -2.88527,9.25827 -4.81665,13.69761c0.59007,0.97165 0.99625,2.06735 1.17026,3.23878l1.26875,7.61246c0.05768,0.11205 0.11178,0.22393 0.16061,0.33567c1.07362,2.45679 2.60426,5.22042 4.23897,7.55918c1.51738,2.17091 3.75482,3.81817 5.07391,6.11496c0.97714,1.70138 3.171,5.83302 5.18446,10.31364c0.00158,0.00053 0.00314,0.00105 0.00471,0.00158c10.68117,3.05107 21.43992,5.74808 32.05494,9.01719c3.37655,1.03988 6.49201,2.87823 9.92027,3.73234c1.24219,0.30948 2.57297,-0.20762 3.84038,-0.02742c1.89659,0.26966 3.77268,0.67076 5.66751,0.95257c2.71883,0.40436 5.27272,1.65722 8,2c2.9538,0.37124 5.95385,-0.06556 8.9309,-0.06556c3.75945,0 7.54973,0.51063 11.2783,0.02981c4.02188,-0.51864 7.96614,-1.58483 12,-2c7.53411,-0.77543 15.14779,-0.02981 22.7217,-0.02981c10,0 20,0 30,0c4.33333,0 8.66667,0 13,0c1.29771,0 8.74944,-0.02789 9.40159,0.11298c8.73374,1.8865 17.87163,5.50498 26.29711,8.31359c7.19422,2.39817 14.87187,4.88335 21.72724,8.47641c0.54584,-0.93957 1.14598,-1.84441 1.80731,-2.70039z" fill="#ff8800" stroke="none" stroke-width="0.5" stroke-linecap="butt"/><path d="M547.25,209.5c0,8.75 -8.75,8.75 -8.75,8.75h-1.03401c0.74923,0.57722 1.51567,1.12873 2.32085,1.62206c1.4621,0.89581 3.25763,1.10801 4.78671,1.884c0.44984,0.22829 5.99452,3.9398 6.78008,4.4635l3.89637,9.28044c0,0 0,6.88031 -6.10109,8.43873c0.06591,0.48672 0.10109,1.0064 0.10109,1.56127c0,8.75 -8.75,8.75 -8.75,8.75c-1.53326,0 -3.09024,-0.38929 -4.59841,-0.11298c-1.17781,0.21578 -1.92263,0.70969 -2.60014,1.20919c0.10834,7.17957 -2.83498,20.58502 -4.20715,27.79706c-1.63026,8.56858 -2.71458,18.0874 -5.1421,26.62005c-0.82237,2.8906 -1.25484,5.94852 -2.61526,8.62829c-3.02619,5.96102 -6.54373,8.61791 -12.82662,10.62432c-1.5057,0.48084 -3.19328,-0.18556 -4.73972,0.14132c-5.12953,1.08427 -9.8876,3.54965 -14.98209,4.78817c-5.655,1.37478 -11.39008,2.39625 -17.08512,3.59438c-9.04562,3.11238 -18.32598,5.64886 -27.73632,7.36804c-5.12145,0.93564 -10.3617,1.13391 -15.47514,2.11241c-2.04911,0.39211 -3.89408,1.55607 -5.93585,1.98475c-4.53183,0.95148 -9.1495,1.43458 -13.72559,2.14325c-8.88512,1.376 -17.68981,3.51499 -26.66331,4.07627c-9.86978,0.61734 -19.77812,0.02547 -29.66719,0.02547c-11.66667,0 -23.33333,0 -35,0c-49,0 -98,0 -147,0c-14.44053,-0.00587 -28.86988,-0.14251 -43.21601,-2.08491c-6.85884,-0.92865 -14.12435,-3.63771 -20.74672,-5.13807c-5.81155,-1.31666 -11.72513,-2.18929 -17.48991,-3.69759c-7.26919,-1.90192 -16.22037,-5.86011 -22.79839,-9.18148c-1.35496,-0.68414 -2.61056,-1.56547 -3.80273,-2.50499c-0.65859,-0.51902 -0.93772,-1.52308 -1.71323,-1.84199c-0.69476,-0.2857 -1.54574,0.49363 -2.24335,0.21495c-4.66327,-1.86291 -9.01111,-4.43736 -13.57415,-6.53383c-5.19743,-2.38794 -10.49114,-4.58762 -15.54427,-7.26745c-6.51158,-3.4533 -12.28967,-8.14059 -18.41654,-12.23784c-3.91501,-2.6181 -8.23721,-4.5818 -12.20077,-7.12581c-5.59419,-3.59063 -11.0729,-7.54651 -16.49855,-11.34698c-1.98085,-1.60561 -4.12833,-3.0251 -5.94256,-4.81684c-1.46253,-1.4444 -2.31421,-3.44441 -3.82915,-4.83374c-1.80212,-1.6527 -4.0081,-2.80204 -6.01701,-4.19607c-3.47776,-2.41331 -17.06411,-9.86243 -20.40985,-15.55722c-1.11025,-1.88977 -2.00532,-4.0149 -2.19382,-6.19855c-0.24597,-2.84943 -0.57757,-6.09521 0.92236,-8.53035c3.93526,-6.38891 11.50122,-7.68717 18.11625,-6.50826c3.75917,0.66995 6.66906,2.526 9.74776,4.30488c2.25671,-0.63755 4.28914,-0.29881 4.28914,-0.29881c5.02833,0.839 10.35339,2.47019 15.42371,2.92353c3.58766,0.32077 7.50874,-0.05982 11.1378,-0.04258c3.10959,0.01477 6.18509,-0.651 9.2783,-0.97019c0.57147,-0.05897 1.17286,0.40443 1.71137,0.20426c1.72192,-0.64006 3.12785,-1.96862 4.83826,-2.63885c2.25943,-0.88536 4.71945,-1.17056 7,-2c1.51115,-0.54961 2.8066,-1.61404 4.33238,-2.12161c3.8696,-1.28727 8.18358,-1.60486 12.04628,-3.01573c2.38451,-0.87096 4.58959,-2.20352 7,-3c3.51694,-1.16212 7.34273,-1.76804 10.44493,-3.79182c4.05666,-0.91227 8.20585,-1.39798 12.23928,-2.40804c5.92455,-1.48364 11.63905,-3.92358 17.4171,-5.83359c5.93514,-1.96194 12.42044,-3.49202 18.44626,-5.13131c6.32941,-1.72188 12.91813,-2.68598 19.3262,-4.07996c3.17759,-0.69124 6.09291,-2.33901 9.26495,-3.05529c1.30059,-0.29369 2.69842,0.28924 4,0c1.75231,-0.3894 3.23846,-1.65474 5,-2c1.89515,-0.37144 3.86938,0.06145 5.79249,-0.1153c3.81492,-0.35062 8.12013,-2.1004 11.7931,-2.97702c4.16403,-0.03328 8.29634,-0.73196 12.44882,-1.04355c6.11298,-0.45869 12.48722,-0.02201 18.62028,-0.02201c5.14744,0 11.67643,1.06242 16.59841,0.11298c1.03501,-0.19965 1.95763,-0.84326 3,-1c4.68453,-0.70442 9.69567,0.68313 14.33249,-0.04743c7.04823,-1.11048 13.8882,-1.06556 21.0691,-1.06556c5.33333,0 10.66667,0 16,0c0.9982,0 9.60386,-0.03485 10.40159,0.11298c2.07289,0.38416 3.94563,1.5267 6,2c0.75411,0.17374 1.55123,-0.17091 2.32011,-0.08317c3.62572,0.41372 7.62243,1.06172 11.52091,1.95299c0.81771,-4.80955 5.9904,-6.53378 5.9904,-6.53378c6.25106,-1.91315 11.13207,-1.5008 17.44904,-0.28583c2.80143,0.53881 5.71324,0.57732 8.44085,1.41307c1.58531,0.48574 2.6369,2.30516 4.2787,2.53672c1.64297,0.23173 3.39698,-0.03926 4.94689,0.55307c1.20096,0.45897 1.83309,1.85563 2.96263,2.4697c2.16898,1.17915 4.94932,0.664 7.22873,1.61225c1.21193,0.50417 2.13835,1.53917 3.30448,2.14174c4.92205,2.54337 11.32563,3.68701 16.60207,5.45921c6.11258,1.67016 12.68925,1.12765 18.9552,1.76404c1.0487,0.10651 1.95665,0.84988 3,1c1.14201,0.16432 2.31395,-0.19834 3.46061,-0.0704c6.42249,0.71659 12.83474,2.27219 19.2069,3.02298c3.69346,0.43517 8.23565,-0.06556 11.9309,-0.06556c9.33333,0 18.66667,0 28,0c1.86614,0.03766 3.74174,0.30452 5.59841,0.11298c1.04853,-0.10817 1.95235,-0.88359 3,-1c1.98777,-0.22086 4.02404,0.30917 6,0c2.60546,-0.40767 4.97242,-1.75422 7.46915,-2.60818c0.77578,-0.70053 1.53476,-1.42875 2.49021,-1.79928c3.93702,-1.5268 8.24319,-2.23691 12.62775,-2.55209c2.32986,-0.79562 4.4169,-2.29888 6.80415,-2.91937c1.12192,-0.29161 2.35289,0.4333 3.47473,0.14137c0.7262,-0.18898 1.00887,-1.17363 1.69129,-1.4857c1.73559,-0.7937 3.57421,-1.38833 5.44273,-1.77676c1.08769,-0.22611 2.23271,0.10967 3.33249,-0.04743c1.36056,-0.19435 2.63096,-0.87913 4,-1c7.18755,-0.63458 14.83672,-0.06556 22.0691,-0.06556h3c0,0 8.75,0 8.75,8.75z" fill="#ff8800" stroke="none" stroke-width="0.5" stroke-linecap="butt"/></g></g></svg>