<svg version="1.1" xmlns="http://www.w3.org/2000/svg" xmlns:xlink="http://www.w3.org/1999/xlink" width="365.1548" height="266.0867" viewBox="0,0,365.1548,266.0867"><g transform="translate(-135.6754,-136.9766)"><g data-paper-data="{&quot;isPaintingLayer&quot;:true}" fill-rule="nonzero" stroke-linejoin="miter" stroke-miterlimit="10" stroke-dasharray="" stroke-dashoffset="0" style="mix-blend-mode: normal"><path d="M205.5,363.5l-32,-110l-30,108z" fill="#ff8800" stroke="#ff8800" stroke-width="12" stroke-linecap="round"/><path d="M456.5,369.5l30,-176l8,184z" fill="none" stroke="#ff8800" stroke-width="12" stroke-linecap="round"/><path d="M449.5,388.5l-5,-29l-37,-120l-24,124l61,21z" fill="none" stroke="#ff8800" stroke-width="12" stroke-linecap="round"/><path d="M283.5,365.5l-67,-9l35,-140l36,147l80,11l-40,-131l-32,120" fill="none" stroke="#ff8800" stroke-width="12" stroke-linecap="round"/><path d="M273.02958,359.15937c-1.7788,0.74767 -3.83275,1.59055 -5.12912,1.80835c-0.24864,0.04177 -5.92959,0.03228 -6.40046,0.03228c-4.87238,0 -9.03818,0.08281 -13.73421,-1.10197c-1.48772,-0.37534 -2.99106,-0.70887 -4.51213,-0.9102c-1.22751,-0.16247 -2.74312,0.59492 -3.71036,-0.17813c-0.25124,-0.2008 -0.48534,-0.41762 -0.70556,-0.64743l-0.10549,0.10549l-3,-3c-0.33903,-0.33903 -0.58114,-0.77499 -0.6812,-1.26275c-4.54226,0.09769 -10.3979,1.53244 -12.86073,-3.54831c-1.47045,-3.0335 0.35285,-7.42918 0.84198,-10.35716c0.15955,-0.95511 -0.15368,-1.94685 -0.01355,-2.905c0.54144,-3.7021 2.07667,-7.37664 3,-11c0.02951,-1.473 -0.31771,-3.00282 0.08854,-4.419c0.59157,-2.06221 2.58833,-3.6111 2.9341,-5.72844c0.98993,-6.06198 2.67406,-12.71176 5.14894,-18.50381c0.54806,-1.28264 1.37686,-2.63875 2.01877,-4.04088c-0.13446,-0.30687 -0.20908,-0.64592 -0.20908,-1.00241v-4h0.08874c-0.01518,-0.19036 -0.02281,-0.38178 -0.02186,-0.57438c0.0062,-1.26093 0.9644,-2.28295 1.63889,-3.3947c0.09724,-0.60749 0.22845,-1.20763 0.41424,-1.79619c0.22554,-0.71447 0.51991,-1.40373 0.84819,-2.08037c0.32284,-1.4593 0.63001,-2.92195 1.28601,-4.25274c0.49098,-0.99604 1.31735,-1.79787 1.86958,-2.75924c0.29026,-1.7753 -0.35542,-3.65252 -0.10507,-5.44784c0.49611,-3.55769 0.84557,-9.42682 3.45316,-12.15632c0.09267,-0.097 0.18868,-0.18974 0.28768,-0.27865l-0.02734,-0.02734l0.33571,-0.33571c0.14983,-3.3763 0.60178,-6.90495 1.93381,-9.81889c-0.00078,-0.69872 -0.00175,-1.39159 -0.00175,-2.07764c0,0 0,-2.5 2.5,-2.5c0.32811,0 0.61315,0.04306 0.86079,0.11788c1.10256,-1.14132 2.33329,-2.40598 3.71359,-2.051c1.7799,0.45774 2.08852,3.05076 2.82592,4.73415c0.96085,2.19351 1.22457,4.63311 1.97141,6.9084c0.67399,2.05336 0.75219,4.2565 1.09601,6.39011c0.64628,4.01065 2.97763,7.90679 3.96915,11.86043c1.25975,5.02316 1.42164,10.31195 3.03085,15.13957c0.0163,3.7234 1.39589,6.43532 2,10c0.57461,3.39062 0.95113,6.2622 1.93258,9.70149c0.2088,0.73168 1.98025,5.77392 2.06742,6.29851c0.53996,3.24973 -0.54088,6.76766 0,10c0.51404,3.07199 2.487,5.91256 3,9c0.04368,0.2629 0.0424,6.53801 0,6.80091c-0.281,1.74228 -1.26821,3.45479 -1,5.19909c0.24697,1.60614 1.82284,2.69268 2.65891,4.08613c0.54233,0.90388 0.66667,2 1,3c1.80126,1.72412 4.85016,4.21016 4.23806,7.12567c-0.1549,0.7378 -0.63847,1.17652 -1.27238,1.4798c0.10791,0.30627 0.20806,0.63402 0.30043,0.9844c0.46969,1.78169 0.7432,4.25807 -0.62496,5.49223c-3.41292,3.07864 -8.77188,-0.22856 -9.23819,-4.1084z" fill="#ff8800" stroke="none" stroke-width="0.5" stroke-linecap="butt"/><path d="M325.5,256c1.48946,0 2.09152,0.88739 2.33489,1.60479c0.09386,-0.06178 0.1867,-0.12339 0.27836,-0.18492c0,0 2.08013,-1.38675 3.46688,0.69338c1.38675,2.08013 -0.69338,3.46688 -0.69338,3.46688c-0.13163,0.08706 -0.40108,0.25266 -0.74451,0.46868c0.51064,0.89778 1.00454,1.91928 1.66746,3.49449c1.21521,2.88757 0.20556,5.35219 2.45807,7.18894c3.67249,3.81973 3.90468,7.43208 4.69995,12.36731c0.49481,3.07062 2.47162,5.91934 3,9c0.16905,0.98561 -0.15909,2.01274 0,3c0.33539,2.08134 1.65445,3.92033 2,6c0.32782,1.97295 -0.26511,4.01765 0,6c0.2154,1.61068 1.83578,2.685 2.65891,4.08613c0.63102,1.07411 0.8397,2.34581 1.24508,3.52376c0.15009,0.43614 2.05645,6.15508 2.09601,6.39011c0.14811,0.87997 -0.35871,1.82995 -0.07499,2.676c0.34064,1.01576 1.37238,1.66861 1.85306,2.62608c0.21271,0.4237 2.089,6.28676 2.22193,6.69792c0,2.99718 0.52731,6.06661 1,9c0.66049,4.09878 3.29536,7.89168 4,12c0.30197,1.76058 -0.0402,3.71423 0.77807,5.30208c1.60317,3.11095 5.06511,5.46738 1.52198,9.86615c-2.2394,2.78019 -5.92816,0.07416 -8.16822,-0.30005c-5.56831,-0.9302 -11.29674,-1.1644 -16.905,-1.98645c-3.45634,-0.50662 -6.01458,0.01245 -9.48511,-1.10956c-1.78976,-0.61992 -3.74306,-0.5838 -5.60989,-0.90399c-4.11499,-0.70579 -8.4243,-2.77407 -12.39011,-4.09601c-1.02903,-0.34301 -6.53436,-2.10974 -6.9772,-2.60394c-3.47508,-3.87818 -0.74594,-7.56503 0.36747,-11.46674c0.81302,-2.84906 0.95091,-4.58138 2.0906,-7.25774c0.48406,-1.13673 2.61325,-4.69085 2.84198,-6.44375c0.34359,-2.63312 0.60134,-5.27764 0.98645,-7.905c0.29465,-2.01019 -0.31946,-4.0908 0.01355,-6.095c0.04383,-0.26376 1.94213,-5.92847 2.09601,-6.39011c0.99435,-2.98305 1.73196,-6.49494 3.12592,-9.30781c1.95181,-3.93856 4.14807,-7.7749 4.77807,-12.30208c0.18378,-1.32061 -0.18856,-2.68007 0,-4c0.14907,-1.0435 0.82049,-1.9613 1,-3c0.55193,-3.19366 -0.46329,-6.67985 -0.01355,-9.905c0.18982,-1.3612 0.80564,-2.63944 1,-4c0.47983,-3.3589 0.45146,-6.92155 2.35464,-10.00887c0.29334,-0.47585 0.64759,-0.91313 1.04278,-1.32009l-0.41615,-2.36558c0,0 0,-2.5 2.5,-2.5z" fill="#ff8800" stroke="none" stroke-width="0.5" stroke-linecap="butt"/><path d="M405.05755,263.1183c0.25981,-0.85773 0.52075,-1.71155 0.79146,-2.55463c0.72488,-0.56367 1.65099,-0.56367 1.65099,-0.56367l2.38675,0.41987c1.2192,0.88038 2.82508,1.38877 3.65759,2.64114c0.81681,1.22876 2.18386,8.87971 2.44349,10.19264c-0.02467,3.48994 1.40131,5.4726 1.97989,8.84589c0.16905,0.98561 -0.15909,2.01274 0,3c0.5407,3.3554 2.24546,8.2667 3.77807,11.30208c1.5295,3.02921 3.71786,5.97046 5.0405,9.08699c1.92591,4.53803 2.39531,9.8942 3.18143,14.61093c0.17329,1.03975 0.83216,1.95936 1,3c0.31845,1.97448 -0.33008,4.02743 0,6c0.44662,2.66907 1.86441,5.48006 2.65891,8.08613c4.49466,4.49466 3.7956,10.76444 6.15966,16.30294c0.93122,2.18166 2.92048,3.78058 3.9595,5.91301c1.03076,2.11548 0.77046,4.64818 1.34153,6.93108c0.94283,3.76901 4.39347,9.63234 -0.12554,13.19541c-0.7319,0.57707 -6.12514,0.47189 -7.46178,0.47189c-3.98151,0 -9.0132,0.75825 -12.88254,-0.19878c-4.10195,-1.01456 -7.54859,-3.52709 -11.56929,-4.74216c-1.66998,-0.84365 -3.43829,-1.51583 -5.00995,-2.53095c-0.74334,-0.48012 -1.09377,-1.44615 -1.85255,-1.90148c-0.83462,-0.50084 -1.91278,-0.44689 -2.78405,-0.88084c-1.0758,-0.53582 -1.92715,-1.4583 -3,-2c-2.59354,-1.30952 -5.93329,-1.95445 -8.69219,-2.87408c-1.51504,-0.50501 -6.88445,-2.13158 -7.4455,-3.25367c-0.74299,-1.48598 0.48398,-3.29136 0.86436,-4.9086c0.21079,-0.89622 0.77781,-1.6979 0.90399,-2.60989c0.19069,-1.37823 -0.30148,-2.82377 0.0346,-4.17393c0.36007,-1.44657 1.58754,-2.56748 2,-4c0.26066,-0.90532 -0.19316,-1.89742 -0.0346,-2.82607c0.35484,-2.07811 1.66461,-3.91866 2,-6c0.92183,-5.72062 1.96075,-10.99785 1.98645,-16.905c0.57942,-2.31768 0.61066,-4.74021 1.01355,-7.095c0.35553,-2.07799 1.65207,-3.92072 2,-6c0.44484,-2.65843 -0.0459,-5.90011 -0.03228,-8.59954c0.0109,-2.16103 0.72666,-4.26112 1.03228,-6.40046c0.18409,-1.28859 -0.17981,-2.61399 -0.01355,-3.905c0.76512,-5.9413 3.85639,-11.26587 6.17157,-16.65125c1.15399,-2.68432 2.00434,-5.57617 2.86725,-8.42499c-0.03713,-0.18692 -0.05755,-0.3924 -0.05755,-0.6183c0,-0.9784 0.38291,-1.57389 0.84901,-1.93633c0.09186,-0.28607 0.18484,-0.57091 0.27928,-0.85424c0,0 0.79057,-2.37171 3.16228,-1.58114c2.37171,0.79057 1.58114,3.16228 1.58114,3.16228c-0.50337,1.51012 -0.96866,3.05866 -1.44188,4.60998c-0.50275,-0.72361 -1.54917,-0.87525 -2.31658,-1.32042l0.38675,0.41987c0,0 -2.06862,0 -2.44245,-1.8817z" fill="#ff8800" stroke="none" stroke-width="0.5" stroke-linecap="butt"/><path d="M482.5,214c2.5,0 2.5,2.5 2.5,2.5v1c0,6.59018 0.12238,13.11721 0.28151,19.62528c0.00302,0.001 0.00604,0.002 0.00906,0.00301c2.37171,0.79057 1.58114,3.16228 1.58114,3.16228c-0.35027,1.04871 -0.95926,2.77488 -1.39608,4.30347c0.25785,9.59244 0.52437,19.18043 0.52437,28.90596c-0.04171,3.35841 1.42671,5.3435 1.96772,8.59954c0.48546,2.92174 -0.5016,6.0976 0,9c0.17951,1.0387 0.86926,1.95405 1,3c0.50604,4.04834 0.42511,7.97574 1,12c0.14907,1.0435 0.83216,1.95936 1,3c0.78838,4.88818 0.03228,10.43311 0.03228,15.40046c0,4.33317 0.0189,8.66686 0,13c-0.0064,1.46684 0.52647,3.04418 -0.03228,4.40046c-0.05129,0.12451 -0.10644,0.2468 -0.16508,0.36709l0.06907,0.02302l-0.98177,2.94531c-0.31417,1.02156 -1.26534,1.76412 -2.38994,1.76412c-0.40856,0 -0.79422,-0.098 -1.13477,-0.27178c0.45511,1.36903 1.13765,2.68349 1.53507,4.07281c0.60633,2.11962 0.5622,4.51242 1.72633,6.38464c0.49784,0.80065 1.53625,1.17913 2,2c1.02847,1.82044 2.21699,6.19074 1.18307,8.27104c-0.75702,1.52317 -2.1053,2.99044 -3.73532,3.47641c-1.66094,0.49519 -5.16266,-1.66217 -6.97484,-1.9654c-3.21845,-0.53855 -5.75792,0.08069 -9,-1c-3.42615,0 -5.76075,-1.54526 -9,-2c-1.18824,-0.16681 -2.40298,0.12169 -3.59954,0.03228c-1.93263,-0.14441 -4.33603,0.57393 -5.76777,-0.73223c-1.28431,-1.17167 -0.78006,-3.4316 -0.69995,-5.16822c0.16083,-3.48658 2.59532,-7.26352 2.97989,-10.84589c0.71839,-6.6921 0.8807,-13.51162 2.01725,-20.13605c0.7677,-4.47455 3.08446,-8.74259 4.01569,-13.09038c0.2742,-1.2802 -0.19752,-2.63154 -0.01283,-3.92769c0.28152,-1.97565 0.99576,-3.90941 0.98645,-5.905c0.75412,-3.0165 0.37726,-6.23283 1.04815,-9.26892c0.32164,-1.4556 1.5902,-2.56672 2,-4c0.27253,-0.95316 -0.2305,-2.00847 -0.00598,-2.97406c0.6339,-2.72618 2.2215,-5.13891 3.26095,-7.73765c1.35521,-3.38813 2.30998,-7.53848 3.93236,-10.81229c1.19935,-2.42017 2.45761,-2.70643 2.77807,-5.30208c0.16338,-1.32329 -0.18856,-2.68007 0,-4c0.14907,-1.0435 0.84954,-1.9567 1,-3c0.1986,-1.37711 -0.30148,-2.82377 0.0346,-4.17393c0.36007,-1.44657 1.67478,-2.5452 2,-4c0.34407,-1.53912 -0.22553,-3.16398 -0.04815,-4.73108c0.07457,-0.65878 0.23429,-1.41461 0.44055,-2.20798c-0.23571,-8.7858 -0.45928,-17.5783 -0.45928,-26.48656v-1c0,0 0,-2.5 2.5,-2.5z" fill="#ff8800" stroke="none" stroke-width="0.5" stroke-linecap="butt"/></g></g></svg>