<svg version="1.1" xmlns="http://www.w3.org/2000/svg" xmlns:xlink="http://www.w3.org/1999/xlink" width="144" height="77" viewBox="0,0,144,77"><g transform="translate(-78.5,-121)"><g data-paper-data="{&quot;isPaintingLayer&quot;:true}" fill-rule="nonzero" stroke-linejoin="miter" stroke-miterlimit="10" stroke-dasharray="" stroke-dashoffset="0" style="mix-blend-mode: normal"><path d="M78.5,198v-77h144l-1,77z" fill="#f5beff" stroke="none" stroke-width="0" stroke-linecap="butt"/><text transform="translate(99.5,158) scale(0.5,0.5)" font-size="40" xml:space="preserve" fill="#d900ff" fill-rule="nonzero" stroke="none" stroke-width="1" stroke-linecap="butt" stroke-linejoin="miter" stroke-miterlimit="10" stroke-dasharray="" stroke-dashoffset="0" font-family="Handwriting" font-weight="normal" text-anchor="start" style="mix-blend-mode: normal"><tspan x="0" dy="0">Music</tspan><tspan x="0" dy="46.150000000000006px">ON/OFF</tspan></text><path d="M98.5,162l37,1l-1,23l-38,-1z" fill="#f5beff" stroke="#f5beff" stroke-width="0.5" stroke-linecap="round"/><path d="M179.01016,170.6133c0.10646,0.46772 0.10895,0.96887 0.03234,1.47731c0.12395,-0.03642 0.24717,-0.07344 0.36961,-0.11113c6.33305,-1.94955 12.56994,-4.32212 18.83731,-6.47493c3.09775,-1.06407 6.15957,-2.23758 9.18017,-3.50417c0.2192,-0.09192 0.60919,-0.29193 1.08193,-0.5111c-0.33758,0.00196 -0.67499,0.00365 -1.01152,0.01073c-1.6663,0.03506 -3.33333,0.0002 -5,0c-8.38518,-0.00101 -16.90009,-0.35764 -25.16032,-1.81903c-5.39504,-0.20011 -11.21884,-0.74763 -16.59334,-0.19314c-1.34379,0.13864 -2.74399,0.18706 -3.99045,0.70796c-0.673,0.28125 -0.89463,1.18905 -1.50488,1.58857c-0.35403,0.23177 -1.46833,-0.14745 -1.25101,0.21564c0.04971,0.08306 0.10924,0.15549 0.17664,0.2194c3.82228,-0.18452 7.82552,0.2806 11.32336,0.2806h4c1.38071,0 2.5,1.11929 2.5,2.5c0,0.05177 -0.00157,0.10317 -0.00467,0.15415c1.65672,-0.16728 3.37565,0.05119 5.08426,0.20928c0.85651,-0.13689 1.70651,-0.26907 2.42042,0.13657h3c1.38071,0 2.5,1.11929 2.5,2.5c0,1.38071 -1.11929,2.5 -2.5,2.5h-3c-0.16047,0.04174 -0.32383,0.07942 -0.48984,0.1133zM173.49307,172.20216c-0.84587,-0.01612 -1.69312,-0.07947 -2.53413,-0.18885c-0.02465,0.173 -0.0525,0.34605 -0.08317,0.51879c0.10626,-0.00406 0.21252,-0.00851 0.31877,-0.01338c0.77259,-0.03537 1.53158,-0.21418 2.29853,-0.31657zM166.04456,172.53325c0.06223,-0.33847 0.1167,-0.67272 0.14781,-0.94896c-1.13412,-0.02554 -2.28098,-0.29996 -3.4205,-0.43155c-0.37262,0.22062 -0.80745,0.34725 -1.27187,0.34725l-0.02806,0c-0.26952,0.20891 -0.55579,0.43318 -0.85443,0.65177l1.18492,0.19749c0.18367,0.02728 0.36082,0.07454 0.52917,0.1395c1.23733,-0.00809 2.47522,0.01956 3.71296,0.0445zM149.26356,162.94387c-0.12486,-0.30108 -0.21546,-0.61508 -0.26356,-0.94387c-0.2257,-1.54272 1.7241,-2.6094 2.74899,-3.78436c0.79717,-0.9139 1.57744,-1.96609 2.68931,-2.45027c6.65411,-2.89762 16.40703,-1.33187 23.4327,-1.05608c9.81026,1.728 19.70267,1.61832 29.629,1.79072c2.41166,0.04189 10.02592,-1.17701 9.48783,4.74634c-0.17629,1.94068 -2.71083,2.83419 -4.30436,3.95579c-2.3674,1.66628 -5.29679,2.34493 -8.00145,3.37733c-8.30453,3.16993 -16.88353,6.13942 -25.4599,8.60827c0.47916,0.45547 0.77788,1.09899 0.77788,1.81227c0,1.38071 -1.11929,2.5 -2.5,2.5h-4c-2.4824,0.66739 -5.1301,0.46341 -7.65066,0.96782l-0.2408,-0.07283l0.00041,0.08556l-4.09509,0.01941c-0.00462,0.00003 -0.00924,0.00004 -0.01386,0.00004c-0.81791,0 -1.54408,-0.39278 -2.00018,-1c-1.33327,0 -2.66654,0 -3.99982,0c-2.66667,0 -5.37036,0.44283 -8,0h-5c-1.11625,0 -2.06164,-0.73158 -2.38284,-1.74143c-1.21445,0.01247 -2.42267,-0.04549 -3.61716,-0.25857l-1.96677,0c-0.08642,0.08671 -0.17488,0.17591 -0.26547,0.26777c0,0 -1.76777,1.76777 -3.53553,0c-0.19941,-0.19941 -0.35383,-0.39882 -0.47088,-0.59569c-0.75351,-0.43062 -1.26135,-1.24204 -1.26135,-2.17207c0,-1.21151 0.86176,-2.22174 2.00574,-2.45115l1.56481,-0.34774c0.68508,-0.8532 1.30954,-1.75696 1.8558,-2.70111h-2.92635c-1.38071,0 -2.5,-1.11929 -2.5,-2.5c0,-1.38071 1.11929,-2.5 2.5,-2.5h3c0.70317,-0.21974 1.43599,-0.24522 2.1788,-0.20524c0.10672,-0.11828 0.2257,-0.22657 0.35943,-0.32286c0.98791,-0.71134 3.39628,-0.7906 5.76658,-0.70873l3.64804,-1.21601c0.88975,-0.47177 1.83155,-0.83158 2.81072,-1.10328zM139.44002,172.90952c0.52621,-0.06251 1.0496,-0.11572 1.57247,-0.16097c0.03807,-0.38124 0.1618,-0.73725 0.35165,-1.04851c-0.49875,-0.01709 -0.99821,-0.04261 -1.4978,-0.06975c-0.00229,0.11485 -0.01823,0.2249 -0.05663,0.32642c-0.12969,0.34286 -0.25237,0.65934 -0.36968,0.95282z" fill="#f5beff" stroke="none" stroke-width="0.5" stroke-linecap="butt"/></g></g></svg>