<svg version="1.1" xmlns="http://www.w3.org/2000/svg" xmlns:xlink="http://www.w3.org/1999/xlink" width="532" height="419.75" viewBox="0,0,532,419.75"><defs><linearGradient x1="247.5" y1="-12" x2="247.5" y2="381" gradientUnits="userSpaceOnUse" id="color-1"><stop offset="0" stop-color="#b5fdff"/><stop offset="1" stop-color="#fca0ff"/></linearGradient></defs><g transform="translate(18.5,13)"><g data-paper-data="{&quot;isPaintingLayer&quot;:true}" fill-rule="nonzero" stroke-linejoin="miter" stroke-miterlimit="10" stroke-dasharray="" stroke-dashoffset="0" style="mix-blend-mode: normal"><path d="M-17.5,381v-393h530v393z" fill="url(#color-1)" stroke="#000000" stroke-width="2" stroke-linecap="butt"/><text transform="translate(59.5,151.875) scale(0.56775,0.81419)" font-size="40" xml:space="preserve" fill="#ffffff" fill-rule="nonzero" stroke="none" stroke-width="1" stroke-linecap="butt" stroke-linejoin="miter" stroke-miterlimit="10" stroke-dasharray="" stroke-dashoffset="0" font-family="Handwriting" font-weight="normal" text-anchor="start" style="mix-blend-mode: normal"><tspan x="0" dy="0">A Sweet Journey Part Two!-A Platformer </tspan><tspan x="0" dy="46.15px">made by NinjaPrincessLOL!</tspan></text><path fill="#ae85ff" stroke="none" stroke-width="0.5" stroke-linecap="butt"/><path d="M426.99863,226.03986c0.85276,0.06009 1.70549,0.12274 2.54568,0.00202c0.3451,-0.04959 0.67111,-0.16812 0.99027,-0.31251c-1.18783,0.05954 -2.29024,0.10003 -3.13412,0.23836c-0.13441,0.02203 -0.26833,0.04614 -0.40183,0.07214z" fill="#ffffff" stroke="none" stroke-width="0.5" stroke-linecap="butt"/><path fill="#ffffff" stroke="none" stroke-width="0.5" stroke-linecap="butt"/><path fill="#ffffff" stroke="none" stroke-width="0.5" stroke-linecap="butt"/><text transform="translate(113,86.5) scale(0.5,0.5)" font-size="40" xml:space="preserve" fill="#ffffff" fill-rule="nonzero" stroke="#000000" stroke-width="0" stroke-linecap="butt" stroke-linejoin="miter" stroke-miterlimit="10" stroke-dasharray="" stroke-dashoffset="0" font-family="Handwriting" font-weight="normal" text-anchor="start" style="mix-blend-mode: normal"><tspan x="0" dy="0">Link in instructions for part one!</tspan></text><path d="M35,306.5l103,-55l20,40l-103,53z" fill="#fcff46" stroke="#fbff00" stroke-width="4" stroke-linecap="round"/><text transform="translate(52.72096,328.74219) rotate(-27.39631) scale(0.5,0.5)" font-size="40" xml:space="preserve" fill="#ffbd00" fill-rule="nonzero" stroke="none" stroke-width="1" stroke-linecap="butt" stroke-linejoin="miter" stroke-miterlimit="10" stroke-dasharray="" stroke-dashoffset="0" font-family="Marker" font-weight="normal" text-anchor="start" style="mix-blend-mode: normal"><tspan x="0" dy="0">Lemon Gum</tspan></text><text transform="translate(326,278.5) scale(0.5,0.5)" font-size="40" xml:space="preserve" fill="#ffbd00" fill-rule="nonzero" stroke="none" stroke-width="1" stroke-linecap="butt" stroke-linejoin="miter" stroke-miterlimit="10" stroke-dasharray="" stroke-dashoffset="0" font-family="Marker" font-weight="normal" text-anchor="start" style="mix-blend-mode: normal"><tspan x="0" dy="0"> </tspan></text><path d="M296,245.5l-18,33l39,26l23,-32z" fill="#ff0061" stroke="#ff0061" stroke-width="4.5" stroke-linecap="round"/><path d="M350,209.5l3,38l48,1l8,-49z" fill="#ffc600" stroke="#ffc600" stroke-width="4.5" stroke-linecap="round"/><path d="M400,270.5l-25,32l36,17l26,-50z" fill="#d2ff00" stroke="#d2ff00" stroke-width="4.5" stroke-linecap="round"/><path d="M271,226.5l-11,36l-23,3l-2,-43z" fill="#ff0000" stroke="#ff0000" stroke-width="4.5" stroke-linecap="round"/><path d="M228,296.5l19,24l29,-16l-26,-27z" fill="#cd01ff" stroke="#cd00ff" stroke-width="4.5" stroke-linecap="round"/><path d="M321,248.5l-29,-13l6,-31l30,21z" fill="#ff00b7" stroke="#ff00b7" stroke-width="4.5" stroke-linecap="round"/><path d="M232,316.5l-17,-14l9,32l15,67" fill="none" stroke="#00e7ff" stroke-width="4.5" stroke-linecap="round"/><path d="M265,315.5l22,12l20,-20" fill="none" stroke="#00e7ff" stroke-width="4.5" stroke-linecap="round"/><path d="M322,313.5l18,15l36,-51l5,9" fill="none" stroke="#00e7ff" stroke-width="4.5" stroke-linecap="round"/><path d="M396,316.5l10,16l42,-28l-8,100" fill="none" stroke="#00e7ff" stroke-width="4.5" stroke-linecap="round"/><text transform="translate(269,348.5) scale(0.5,0.5)" font-size="40" xml:space="preserve" fill="#00e7ff" fill-rule="nonzero" stroke="none" stroke-width="1" stroke-linecap="butt" stroke-linejoin="miter" stroke-miterlimit="10" stroke-dasharray="" stroke-dashoffset="0" font-family="Marker" font-weight="normal" text-anchor="start" style="mix-blend-mode: normal"><tspan x="0" dy="0">FRUIT CHEWS</tspan></text></g></g></svg>